<svg width="187" height="41" viewBox="0 0 187 41" fill="none" xmlns="http://www.w3.org/2000/svg">
<g clip-path="url(#clip0_250_31)">
<path fill-rule="evenodd" clip-rule="evenodd" d="M59.8301 2.73056C59.8301 1.34117 60.9687 0.214844 62.3734 0.214844H66.804C67.8037 0.214844 68.7726 0.557543 69.5456 1.1846L70.8934 2.27788L70.9271 2.30829C70.9582 2.29791 70.9893 2.28777 71.0205 2.27788C73.4521 1.50749 76.4023 1.36098 79.4134 1.36098C82.4245 1.36098 85.3747 1.50749 87.8063 2.27788C87.8375 2.28777 87.8686 2.29791 87.8997 2.30829L87.9334 2.27788L89.2812 1.1846C90.0542 0.557543 91.0231 0.214844 92.0228 0.214844H96.4534C97.8581 0.214844 98.9967 1.34117 98.9967 2.73056V4.28575C98.9967 5.489 98.4843 6.63658 97.5851 7.44698L96.4978 8.42697C95.967 8.90539 95.3299 9.25357 94.6379 9.44339L94.3807 9.51395C95.3882 11.8919 95.9448 14.4337 95.9448 16.4899C95.9448 24.7613 90.7709 28.3336 86.2121 31.4812C82.622 33.96 79.4134 36.1753 79.4134 40.2149C79.4134 36.1753 76.2048 33.96 72.6147 31.4812C68.0559 28.3336 62.882 24.7613 62.882 16.4899C62.882 14.4337 63.4386 11.8919 64.4461 9.51395L64.1889 9.44339C63.4969 9.25357 62.8598 8.90539 62.329 8.42697L61.2417 7.44698C60.3425 6.63658 59.8301 5.489 59.8301 4.28575V2.73056ZM82.7197 23.2521C82.7197 23.6473 82.5455 24.0262 82.2355 24.3057C81.9255 24.5851 81.505 24.7421 81.0665 24.7421C80.688 24.7421 80.3228 24.625 80.0306 24.4132C80.528 25.7302 81.8009 26.9781 83.737 24.9713C85.4462 23.1066 83.661 19.1737 81.9218 16.8399C81.3421 16.062 80.3904 15.6876 79.4134 15.6876C78.4364 15.6876 77.4847 16.062 76.905 16.8399C75.1658 19.1737 73.3806 23.1066 75.0898 24.9713C77.0259 26.9781 78.2988 25.7302 78.7962 24.4132C78.504 24.625 78.1388 24.7421 77.7603 24.7421C77.3218 24.7421 76.9013 24.5851 76.5913 24.3057C76.2813 24.0262 76.1071 23.6473 76.1071 23.2521H82.7197ZM73.0827 11.61H68.4773L72.1068 14.4847C72.9055 15.1172 74.0729 14.915 74.5671 14.0585C75.1911 12.9771 74.3623 11.61 73.0827 11.61ZM85.7441 11.61H90.3495L86.72 14.4847C85.9213 15.1172 84.7539 14.915 84.2597 14.0585C83.6357 12.9771 84.4645 11.61 85.7441 11.61Z" fill="#868686"/>
<path d="M104.482 28.5477H108.562V13.1577H104.482V28.5477ZM104.482 10.7577H108.562V7.09766H104.482V10.7577Z" fill="#868686"/>
<path d="M111.191 33.5844H115.271V26.8044H115.331C116.201 28.1244 117.611 28.9944 119.771 28.9944C123.731 28.9944 126.431 25.8444 126.431 20.8644C126.431 16.0644 123.821 12.7344 119.741 12.7344C117.641 12.7344 116.201 13.7244 115.211 15.0744H115.121V13.1544H111.191V33.5844ZM118.901 25.6044C116.471 25.6044 115.181 23.7744 115.181 20.9844C115.181 18.2244 116.201 16.0344 118.751 16.0344C121.271 16.0344 122.291 18.0744 122.291 20.9844C122.291 23.8944 120.971 25.6044 118.901 25.6044Z" fill="#868686"/>
<path d="M134.571 28.9944C138.411 28.9944 141.051 27.1344 141.051 24.0444C141.051 20.4444 138.201 19.7244 135.621 19.1844C133.431 18.7344 131.391 18.6144 131.391 17.2944C131.391 16.1844 132.441 15.5844 134.031 15.5844C135.771 15.5844 136.821 16.1844 137.001 17.8344H140.691C140.391 14.7444 138.141 12.7344 134.091 12.7344C130.581 12.7344 127.821 14.3244 127.821 17.6544C127.821 21.0144 130.521 21.7644 133.281 22.3044C135.381 22.7244 137.331 22.8744 137.331 24.3444C137.331 25.4244 136.311 26.1144 134.511 26.1144C132.681 26.1144 131.421 25.3344 131.151 23.5644H127.371C127.611 26.8344 130.101 28.9944 134.571 28.9944Z" fill="#868686"/>
<path d="M156.541 28.5463V13.1562H152.461V22.0363C152.461 24.0763 151.291 25.5163 149.371 25.5163C147.631 25.5163 146.821 24.5262 146.821 22.7262V13.1562H142.771V23.4163C142.771 26.7763 144.691 28.9662 148.111 28.9662C150.271 28.9662 151.471 28.1563 152.521 26.7463H152.611V28.5463H156.541Z" fill="#868686"/>
<path d="M159.182 28.5444H163.262V19.6044C163.262 17.5644 164.372 16.2444 166.022 16.2444C167.522 16.2444 168.392 17.1444 168.392 18.8844V28.5444H172.472V19.6044C172.472 17.5644 173.522 16.2444 175.232 16.2444C176.732 16.2444 177.602 17.1444 177.602 18.8844V28.5444H181.682V18.1944C181.682 14.8344 179.852 12.7344 176.612 12.7344C174.662 12.7344 173.042 13.7544 171.992 15.4344H171.932C171.182 13.8144 169.622 12.7344 167.672 12.7344C165.542 12.7344 164.042 13.8144 163.202 15.2244H163.112V13.1544H159.182V28.5444Z" fill="#868686"/>
<path d="M1.47656 28.5477H5.55656V7.09766H1.47656V28.5477Z" fill="#868686"/>
<path d="M15.5342 28.9944C20.3042 28.9944 23.5742 25.4544 23.5742 20.8644C23.5742 16.2744 20.3042 12.7344 15.5342 12.7344C10.7641 12.7344 7.49414 16.2744 7.49414 20.8644C7.49414 25.4544 10.7641 28.9944 15.5342 28.9944ZM15.5342 25.8744C13.0142 25.8744 11.6342 23.8644 11.6342 20.8644C11.6342 17.8644 13.0142 15.8244 15.5342 15.8244C18.0242 15.8244 19.4342 17.8644 19.4342 20.8644C19.4342 23.8644 18.0242 25.8744 15.5342 25.8744Z" fill="#868686"/>
<path d="M32.2507 33.7944C34.5307 33.7944 36.5107 33.2544 37.8007 32.0544C38.9407 31.0044 39.6307 29.5344 39.6307 27.3744V13.1544H35.7007V14.7744H35.6407C34.7107 13.4844 33.3007 12.7344 31.3807 12.7344C27.4807 12.7344 24.7207 15.6744 24.7207 20.2644C24.7207 24.9144 28.0807 27.6144 31.5007 27.6144C33.4507 27.6144 34.6207 26.8344 35.5207 25.8144H35.6107V27.4944C35.6107 29.5944 34.5007 30.7044 32.1907 30.7044C30.3007 30.7044 29.4307 29.9544 29.1007 28.9944H25.0507C25.4707 31.9944 28.0507 33.7944 32.2507 33.7944ZM32.1907 24.3444C30.0907 24.3444 28.7107 22.8144 28.7107 20.2044C28.7107 17.6244 30.0907 16.0044 32.1607 16.0044C34.6207 16.0044 35.8207 17.9244 35.8207 20.1744C35.8207 22.4544 34.7707 24.3444 32.1907 24.3444Z" fill="#868686"/>
<path d="M49.5478 28.9944C54.3178 28.9944 57.5878 25.4544 57.5878 20.8644C57.5878 16.2744 54.3178 12.7344 49.5478 12.7344C44.7778 12.7344 41.5078 16.2744 41.5078 20.8644C41.5078 25.4544 44.7778 28.9944 49.5478 28.9944ZM49.5478 25.8744C47.0278 25.8744 45.6478 23.8644 45.6478 20.8644C45.6478 17.8644 47.0278 15.8244 49.5478 15.8244C52.0378 15.8244 53.4478 17.8644 53.4478 20.8644C53.4478 23.8644 52.0378 25.8744 49.5478 25.8744Z" fill="#868686"/>
<path d="M181.496 9.79688C181.496 9.10651 182.055 8.54688 182.746 8.54688H185.246C185.936 8.54688 186.496 9.10651 186.496 9.79688C186.496 10.4872 185.936 11.0469 185.246 11.0469H182.746C182.055 11.0469 181.496 10.4872 181.496 9.79688Z" fill="#868686"/>
</g>
<defs>
<clipPath id="clip0_250_31">
<rect width="186" height="41" fill="white" transform="translate(0.792969)"/>
</clipPath>
</defs>
</svg>
