<svg width="221" height="40" viewBox="0 0 221 40" fill="none" xmlns="http://www.w3.org/2000/svg">
<g clip-path="url(#clip0_250_15)">
<path d="M20.2045 40C31.2505 40 40.2045 31.046 40.2045 20V6C40.2045 4.4087 39.5724 2.88258 38.4472 1.75736C37.3219 0.632141 35.7958 0 34.2045 0L21.2045 0V8.774C21.2045 10.776 21.3265 12.85 22.3765 14.554C23.1282 15.7752 24.1338 16.8204 25.325 17.6188C26.5162 18.4171 27.8652 18.9499 29.2805 19.181L29.6635 19.243C29.8214 19.297 29.9585 19.399 30.0555 19.5347C30.1526 19.6704 30.2048 19.8331 30.2048 20C30.2048 20.1669 30.1526 20.3296 30.0555 20.4653C29.9585 20.601 29.8214 20.703 29.6635 20.757L29.2805 20.819C27.2127 21.1568 25.3032 22.1356 23.8216 23.6171C22.3401 25.0987 21.3613 27.0082 21.0235 29.076L20.9615 29.459C20.9075 29.6169 20.8056 29.754 20.6698 29.851C20.5341 29.9481 20.3714 30.0003 20.2045 30.0003C20.0376 30.0003 19.875 29.9481 19.7392 29.851C19.6035 29.754 19.5015 29.6169 19.4475 29.459L19.3855 29.076C19.1544 27.6607 18.6216 26.3118 17.8232 25.1205C17.0249 23.9293 15.9797 22.9237 14.7585 22.172C13.0545 21.122 10.9805 21 8.97852 21H0.228516C0.751516 31.581 9.49452 40 20.2045 40Z" fill="#656565"/>
<path d="M0.205078 19H8.97908C10.9811 19 13.0551 18.878 14.7591 17.828C16.0911 17.0073 17.2124 15.886 18.0331 14.554C19.0831 12.85 19.2051 10.776 19.2051 8.774V0H6.20508C4.61378 0 3.08766 0.632141 1.96244 1.75736C0.837219 2.88258 0.205078 4.4087 0.205078 6L0.205078 19ZM46.6601 2C46.6601 2.53043 46.4494 3.03914 46.0743 3.41421C45.6992 3.78929 45.1905 4 44.6601 4C44.1296 4 43.6209 3.78929 43.2459 3.41421C42.8708 3.03914 42.6601 2.53043 42.6601 2C42.6601 1.46957 42.8708 0.960859 43.2459 0.585786C43.6209 0.210714 44.1296 0 44.6601 0C45.1905 0 45.6992 0.210714 46.0743 0.585786C46.4494 0.960859 46.6601 1.46957 46.6601 2ZM211.916 12.104C217.507 12.104 220.205 16.009 220.205 20.532V29.027H214.354V21.54C214.354 19.49 213.606 17.798 211.461 17.798C209.316 17.798 208.601 19.49 208.601 21.54V29.026H202.75V21.54C202.75 19.49 202.035 17.798 199.889 17.798C197.744 17.798 196.996 19.49 196.996 21.54V29.026H191.146V20.531C191.146 16.008 193.843 12.103 199.434 12.103C202.49 12.103 204.7 13.307 205.708 15.292C206.78 13.307 209.121 12.102 211.916 12.102V12.104ZM180.632 23.82C182.517 23.82 183.33 22.095 183.33 20.044V12.754H189.18V20.76C189.18 25.544 186.385 29.515 180.632 29.515C174.878 29.515 172.083 25.545 172.083 20.76V12.754H177.934V20.044C177.934 22.094 178.746 23.82 180.632 23.82ZM163.48 29.547C159.807 29.547 157.434 28.278 156.036 25.805L160.262 23.429C160.847 24.47 161.724 24.991 163.187 24.991C164.39 24.991 164.942 24.568 164.942 24.047C164.942 22.062 156.361 24.08 156.361 17.767C156.361 14.707 158.961 12.234 163.382 12.234C167.25 12.234 169.363 14.121 170.306 15.944L166.08 18.352C165.723 17.376 164.617 16.79 163.512 16.79C162.667 16.79 162.212 17.148 162.212 17.636C162.212 19.654 170.793 17.799 170.793 23.917C170.793 27.334 167.445 29.547 163.48 29.547ZM143.038 36.512H137.187V20.858C137.187 15.878 140.925 12.266 146.126 12.266C151.197 12.266 155.065 16.139 155.065 20.858C155.065 26.065 151.619 29.515 146.451 29.515C145.248 29.515 144.046 29.157 143.038 28.603V36.512ZM146.126 24.015C147.979 24.015 149.214 22.583 149.214 20.89C149.214 19.166 147.979 17.766 146.126 17.766C144.273 17.766 143.038 19.166 143.038 20.891C143.038 22.583 144.273 24.015 146.126 24.015ZM131.326 11.03C129.408 11.03 127.816 9.435 127.816 7.515C127.816 5.595 129.408 4 131.326 4C133.244 4 134.837 5.595 134.837 7.515C134.837 9.435 133.244 11.03 131.326 11.03ZM128.401 12.754H134.252V29.027H128.401V12.754ZM117.175 29.515C112.104 29.515 108.236 25.61 108.236 20.858C108.236 16.139 112.104 12.234 117.175 12.234C122.246 12.234 126.114 16.139 126.114 20.858C126.114 25.61 122.246 29.515 117.175 29.515ZM117.175 24.015C119.028 24.015 120.263 22.583 120.263 20.89C120.263 19.166 119.028 17.734 117.175 17.734C115.322 17.734 114.087 19.166 114.087 20.89C114.087 22.583 115.322 24.015 117.175 24.015ZM97.1881 37C93.1581 37 90.2321 35.21 88.7371 32.02L93.5801 29.417C94.1001 30.524 95.0751 31.663 97.0901 31.663C99.2041 31.663 100.601 30.328 100.764 27.985C99.9841 28.669 98.7481 29.189 96.8961 29.189C92.3771 29.189 88.7361 25.707 88.7361 20.825C88.7361 16.107 92.6051 12.266 97.6761 12.266C102.877 12.266 106.615 15.879 106.615 20.858V27.302C106.615 33.16 102.551 37 97.1881 37ZM97.5781 23.69C99.3331 23.69 100.666 22.485 100.666 20.695C100.666 18.938 99.3341 17.766 97.5781 17.766C95.8551 17.766 94.4901 18.938 94.4901 20.696C94.4901 22.486 95.8551 23.689 97.5781 23.689V23.69ZM78.8121 29.515C73.7411 29.515 69.8721 25.61 69.8721 20.858C69.8721 16.139 73.7411 12.234 78.8121 12.234C83.8821 12.234 87.7511 16.139 87.7511 20.858C87.7511 25.61 83.8831 29.515 78.8121 29.515ZM78.8121 24.015C80.6651 24.015 81.9001 22.583 81.9001 20.89C81.9001 19.166 80.6651 17.734 78.8121 17.734C76.9591 17.734 75.7241 19.166 75.7241 20.89C75.7241 22.583 76.9591 24.015 78.8121 24.015ZM59.2181 7.06V23.494H68.9051V29.027H58.4051C54.7001 29.027 53.2051 27.074 53.2051 23.982V7.06H59.2181Z" fill="#656565"/>
</g>
<defs>
<clipPath id="clip0_250_15">
<rect width="220" height="40" fill="white" transform="translate(0.205078)"/>
</clipPath>
</defs>
</svg>
