<svg width="182" height="40" viewBox="0 0 182 40" fill="none" xmlns="http://www.w3.org/2000/svg">
<path d="M53.482 26.6949C53.482 27.568 53.3027 28.239 52.9442 28.7077C52.595 29.1765 52.0114 29.4109 51.1934 29.4109C50.4213 29.4109 49.8745 29.1765 49.5527 28.7077C49.2402 28.239 49.084 27.568 49.084 26.6949V12.1223C49.084 11.2491 49.2402 10.5781 49.5527 10.1094C49.8745 9.64063 50.4213 9.40625 51.1934 9.40625C52.0114 9.40625 52.595 9.64063 52.9442 10.1094C53.3027 10.5781 53.482 11.2491 53.482 12.1223V26.6949Z" fill="#868686"/>
<path d="M54.8164 22.4642C54.8164 21.4898 54.9726 20.5708 55.2852 19.7068C55.6069 18.8336 56.0848 18.0708 56.719 17.4182C57.3624 16.7656 58.1621 16.2463 59.1179 15.8603C60.083 15.4742 61.2135 15.2812 62.5095 15.2812C63.7503 15.2812 64.8486 15.4604 65.8045 15.8189C66.7604 16.1774 67.5646 16.6783 68.2171 17.3217C68.8697 17.9558 69.3661 18.7141 69.7062 19.5964C70.0462 20.4696 70.2163 21.4255 70.2163 22.4642C70.2163 23.4292 70.0553 24.3437 69.7337 25.2077C69.4121 26.0624 68.9295 26.8162 68.2861 27.4688C67.6428 28.1121 66.8385 28.6268 65.8735 29.0129C64.9083 29.3897 63.787 29.5781 62.5095 29.5781C61.2503 29.5781 60.1382 29.3989 59.173 29.0404C58.2171 28.6728 57.413 28.1718 56.7604 27.5376C56.117 26.8943 55.6298 26.1407 55.299 25.2767C54.9772 24.4035 54.8164 23.466 54.8164 22.4642ZM59.4075 22.4642C59.4075 23.0708 59.4625 23.6498 59.5729 24.2012C59.6831 24.7435 59.8578 25.2215 60.0968 25.6351C60.3449 26.0487 60.6666 26.3796 61.0618 26.6277C61.4571 26.8667 61.9396 26.9862 62.5095 26.9862C63.0333 26.9862 63.4883 26.876 63.8743 26.6553C64.2696 26.4348 64.5912 26.1268 64.8395 25.7316C65.0968 25.3364 65.2898 24.863 65.4184 24.3116C65.5471 23.7509 65.6115 23.1351 65.6115 22.4642C65.6115 21.8575 65.5517 21.283 65.4323 20.7408C65.3219 20.1894 65.1428 19.7068 64.8945 19.2931C64.6464 18.8704 64.3248 18.5395 63.9295 18.3005C63.5435 18.0524 63.07 17.9283 62.5095 17.9283C61.9488 17.9283 61.4709 18.0477 61.0756 18.2868C60.6804 18.5257 60.3588 18.852 60.1105 19.2656C59.8624 19.6792 59.6831 20.1617 59.5729 20.7132C59.4625 21.2647 59.4075 21.8483 59.4075 22.4642Z" fill="#868686"/>
<path d="M81.5339 26.7517C81.2856 27.2112 80.9823 27.6018 80.6239 27.9235C80.2747 28.2452 79.884 28.5118 79.4521 28.7232C79.0293 28.9253 78.5743 29.0769 78.0871 29.1781C77.6091 29.27 77.1175 29.316 76.612 29.316C75.7663 29.316 74.9943 29.1644 74.2957 28.8609C73.5973 28.5577 72.9953 28.1211 72.4897 27.5513C71.9934 26.9722 71.6074 26.2645 71.3316 25.4281C71.0559 24.5917 70.918 23.6358 70.918 22.5605C70.918 21.5494 71.0467 20.6027 71.3041 19.7204C71.5614 18.838 71.9336 18.0706 72.4208 17.418C72.9171 16.7654 73.5237 16.2507 74.2407 15.8739C74.9575 15.4971 75.7756 15.3086 76.6947 15.3086C77.7424 15.3086 78.6708 15.5108 79.4796 15.9152C80.2976 16.3197 81.0008 16.9814 81.589 17.9005V17.5421C81.589 16.8804 81.7682 16.384 82.1267 16.0531C82.4943 15.7131 82.9999 15.5429 83.6433 15.5429C84.0293 15.5429 84.3555 15.6073 84.6221 15.736C84.8886 15.8555 85.1 16.0393 85.2562 16.2875C85.4126 16.5265 85.5228 16.8252 85.5871 17.1837C85.6607 17.5328 85.6974 17.9327 85.6974 18.3831V27.6202C85.6974 28.7415 85.555 29.7433 85.2701 30.6257C84.9943 31.508 84.5623 32.2526 83.9741 32.8592C83.3858 33.4658 82.6322 33.9253 81.713 34.2379C80.794 34.5595 79.7002 34.7204 78.4318 34.7204C77.5403 34.7204 76.7499 34.6791 76.0604 34.5962C75.3803 34.5228 74.7921 34.4079 74.2957 34.2517C73.7995 34.0769 73.4227 33.884 73.1653 33.6726C72.9171 33.4612 72.793 33.1854 72.793 32.8454C72.793 32.6524 72.8206 32.4686 72.8757 32.2939C72.9309 32.1193 73.0136 31.9631 73.1239 31.8252C73.2434 31.6965 73.395 31.5908 73.5789 31.508C73.7719 31.4346 74.0062 31.3978 74.282 31.3978C74.5761 31.3978 74.8702 31.4161 75.1643 31.4529C75.4676 31.4897 75.7802 31.5265 76.1019 31.5632C76.4327 31.6092 76.7774 31.6505 77.1358 31.6873C77.5035 31.724 77.8987 31.7425 78.3215 31.7425C78.827 31.7425 79.2774 31.6919 79.6727 31.5908C80.0679 31.4897 80.4033 31.3105 80.679 31.0531C80.9548 30.7958 81.1662 30.4511 81.3133 30.0191C81.4603 29.5962 81.5339 29.054 81.5339 28.3922V26.7517ZM81.5339 22.464C81.5339 21.7929 81.4833 21.1818 81.3822 20.6304C81.2903 20.0788 81.1294 19.6101 80.8996 19.224C80.6699 18.8288 80.362 18.5255 79.976 18.3141C79.5898 18.0935 79.1074 17.9833 78.5283 17.9833C77.9584 17.9833 77.4851 18.0981 77.1083 18.3279C76.7407 18.5577 76.4466 18.8748 76.226 19.2792C76.0054 19.6837 75.8491 20.1569 75.7571 20.6993C75.6744 21.2415 75.6331 21.8206 75.6331 22.4364C75.6331 23.8426 75.8813 24.8997 76.3776 25.6073C76.8739 26.3151 77.5954 26.6689 78.5421 26.6689C78.9833 26.6598 79.3831 26.5769 79.7415 26.4207C80.1091 26.2553 80.4263 26.0026 80.6928 25.6625C80.9594 25.3224 81.1662 24.8904 81.3133 24.3665C81.4603 23.8426 81.5339 23.2085 81.5339 22.464Z" fill="#868686"/>
<path d="M86.9629 22.4642C86.9629 21.4898 87.1191 20.5708 87.4316 19.7068C87.7534 18.8336 88.2312 18.0708 88.8655 17.4182C89.5089 16.7656 90.3084 16.2463 91.2643 15.8603C92.2295 15.4742 93.3599 15.2812 94.6559 15.2812C95.8966 15.2812 96.995 15.4604 97.9509 15.8189C98.9068 16.1774 99.711 16.6783 100.364 17.3217C101.016 17.9558 101.513 18.7141 101.853 19.5964C102.193 20.4696 102.363 21.4255 102.363 22.4642C102.363 23.4292 102.202 24.3437 101.88 25.2077C101.558 26.0624 101.076 26.8162 100.433 27.4688C99.7891 28.1121 98.9849 28.6268 98.0198 29.0129C97.0548 29.3897 95.9335 29.5781 94.6559 29.5781C93.3966 29.5781 92.2845 29.3989 91.3195 29.0404C90.3636 28.6728 89.5594 28.1718 88.9068 27.5376C88.2635 26.8943 87.7763 26.1407 87.4454 25.2767C87.1237 24.4035 86.9629 23.466 86.9629 22.4642ZM91.5538 22.4642C91.5538 23.0708 91.609 23.6498 91.7194 24.2012C91.8296 24.7435 92.0042 25.2215 92.2432 25.6351C92.4914 26.0487 92.813 26.3796 93.2083 26.6277C93.6035 26.8667 94.0861 26.9862 94.6559 26.9862C95.1798 26.9862 95.6348 26.876 96.0208 26.6553C96.4159 26.4348 96.7377 26.1268 96.9858 25.7316C97.2432 25.3364 97.4362 24.863 97.5649 24.3116C97.6936 23.7509 97.7579 23.1351 97.7579 22.4642C97.7579 21.8575 97.6982 21.283 97.5787 20.7408C97.4684 20.1894 97.2891 19.7068 97.041 19.2931C96.7929 18.8704 96.4711 18.5395 96.0759 18.3005C95.6899 18.0524 95.2165 17.9283 94.6559 17.9283C94.0952 17.9283 93.6172 18.0477 93.2221 18.2868C92.8269 18.5257 92.5051 18.852 92.257 19.2656C92.0089 19.6792 91.8296 20.1617 91.7194 20.7132C91.609 21.2647 91.5538 21.8483 91.5538 22.4642Z" fill="#868686"/>
<path d="M108.276 10.6326C108.276 10.9359 108.207 11.207 108.069 11.446C107.932 11.6758 107.752 11.8687 107.532 12.0251C107.311 12.1813 107.054 12.3007 106.76 12.3835C106.475 12.457 106.181 12.4938 105.877 12.4938C105.556 12.4938 105.248 12.4524 104.954 12.3697C104.669 12.287 104.416 12.1676 104.195 12.0112C103.975 11.8458 103.8 11.6482 103.671 11.4184C103.543 11.1887 103.479 10.9267 103.479 10.6326C103.479 10.366 103.538 10.1225 103.658 9.90189C103.786 9.67211 103.956 9.4745 104.168 9.30905C104.379 9.14362 104.632 9.01493 104.926 8.92303C105.22 8.83111 105.542 8.78516 105.891 8.78516C106.195 8.78516 106.489 8.82652 106.774 8.90924C107.068 8.99196 107.325 9.11144 107.546 9.2677C107.766 9.42394 107.941 9.61696 108.069 9.84673C108.207 10.0765 108.276 10.3385 108.276 10.6326ZM108.069 26.6942C108.069 27.5673 107.89 28.2383 107.532 28.707C107.183 29.1758 106.599 29.4102 105.781 29.4102C105.009 29.4102 104.462 29.1758 104.14 28.707C103.828 28.2383 103.671 27.5673 103.671 26.6942V18.2566C103.671 17.3835 103.828 16.7125 104.14 16.2438C104.462 15.7751 105.009 15.5406 105.781 15.5406C106.599 15.5406 107.183 15.7751 107.532 16.2438C107.89 16.7125 108.069 17.3835 108.069 18.2566V26.6942Z" fill="#868686"/>
<path d="M114.408 22.4364C114.408 23.0522 114.454 23.6266 114.546 24.1598C114.647 24.6928 114.812 25.1615 115.042 25.566C115.281 25.9612 115.594 26.2737 115.98 26.5034C116.375 26.7333 116.862 26.8481 117.441 26.8481C117.974 26.8481 118.42 26.7379 118.779 26.5173C119.146 26.2875 119.44 25.9749 119.661 25.5798C119.881 25.1753 120.037 24.702 120.129 24.1598C120.23 23.6174 120.281 23.0292 120.281 22.3951C120.281 21.8895 120.244 21.3748 120.17 20.8509C120.097 20.3178 119.96 19.8353 119.757 19.4033C119.555 18.9713 119.275 18.6174 118.916 18.3417C118.557 18.066 118.089 17.9281 117.51 17.9281C116.931 17.9281 116.439 18.02 116.035 18.2039C115.639 18.3877 115.318 18.668 115.07 19.0448C114.831 19.4217 114.661 19.8951 114.56 20.4648C114.458 21.0255 114.408 21.6827 114.408 22.4364ZM114.394 18.2589C114.624 17.7719 114.918 17.3445 115.276 16.9768C115.635 16.6092 116.03 16.3013 116.462 16.0531C116.894 15.8049 117.344 15.6211 117.813 15.5017C118.292 15.3729 118.764 15.3086 119.233 15.3086C120.079 15.3086 120.842 15.4971 121.522 15.8739C122.202 16.2507 122.781 16.7654 123.259 17.418C123.746 18.0614 124.119 18.8242 124.376 19.7066C124.633 20.5798 124.762 21.5173 124.762 22.5191C124.762 23.5577 124.623 24.5089 124.348 25.3729C124.082 26.2369 123.7 26.9814 123.203 27.6064C122.716 28.2222 122.128 28.7047 121.439 29.054C120.759 29.4033 120.001 29.5779 119.164 29.5779C118.135 29.5779 117.216 29.3389 116.407 28.8609C115.598 28.3831 114.927 27.7121 114.394 26.8481V31.8114C114.394 32.6845 114.215 33.3555 113.856 33.8242C113.507 34.2929 112.924 34.5274 112.105 34.5274C111.333 34.5274 110.786 34.2929 110.465 33.8242C110.152 33.3555 109.996 32.6845 109.996 31.8114V18.2589C109.996 17.3858 110.152 16.7148 110.465 16.2461C110.786 15.7774 111.333 15.5429 112.105 15.5429C112.924 15.5429 113.507 15.7774 113.856 16.2461C114.215 16.7148 114.394 17.3858 114.394 18.2589Z" fill="#868686"/>
<path d="M129.613 19.2381C129.613 19.5964 129.769 19.8768 130.081 20.079C130.394 20.2721 130.826 20.4329 131.378 20.5616C131.901 20.681 132.439 20.796 132.99 20.9062C133.542 21.0165 134.08 21.1453 134.603 21.2923C135.127 21.4301 135.619 21.5956 136.079 21.7885C136.538 21.9816 136.942 22.2251 137.292 22.5193C137.641 22.8042 137.916 23.1535 138.119 23.567C138.321 23.9715 138.422 24.4587 138.422 25.0284C138.422 25.7454 138.275 26.3842 137.981 26.9448C137.687 27.4963 137.269 27.965 136.727 28.3511C136.194 28.7371 135.555 29.0358 134.81 29.2472C134.066 29.4587 133.243 29.5689 132.342 29.5781C131.488 29.5781 130.665 29.523 129.874 29.4127C129.085 29.3116 128.381 29.1507 127.765 28.9301C127.159 28.7095 126.672 28.4384 126.303 28.1167C125.936 27.7858 125.753 27.3998 125.753 26.9587C125.753 26.5725 125.876 26.2738 126.125 26.0624C126.373 25.8511 126.689 25.7454 127.076 25.7454C127.223 25.7454 127.398 25.7729 127.6 25.8281C127.802 25.8833 128.022 25.9522 128.261 26.0349C128.5 26.1176 128.753 26.2095 129.02 26.3107C129.295 26.4025 129.58 26.4852 129.874 26.5588C130.242 26.66 130.619 26.7427 131.005 26.807C131.4 26.8621 131.805 26.8897 132.219 26.8897C132.475 26.8897 132.728 26.8667 132.976 26.8208C133.225 26.7656 133.446 26.6875 133.639 26.5864C133.841 26.4761 134.006 26.3382 134.135 26.1728C134.263 26.0074 134.341 25.8051 134.369 25.5662C134.396 25.511 134.42 25.4558 134.438 25.4007C134.456 25.3456 134.466 25.2813 134.466 25.2077C134.466 24.9503 134.346 24.7205 134.107 24.5183C133.878 24.3162 133.55 24.1553 133.128 24.0358C132.42 23.8704 131.745 23.7188 131.101 23.5809C130.459 23.443 129.861 23.296 129.309 23.1397C128.767 22.9835 128.27 22.8042 127.82 22.602C127.379 22.3998 127.002 22.1516 126.689 21.8575C126.387 21.5634 126.147 21.2095 125.973 20.796C125.807 20.3823 125.725 19.8814 125.725 19.2931C125.725 18.659 125.867 18.0937 126.152 17.5974C126.446 17.0918 126.865 16.6691 127.407 16.329C127.949 15.9889 128.606 15.7316 129.379 15.557C130.15 15.3731 131.023 15.2812 131.998 15.2812C133.743 15.2812 135.072 15.4927 135.982 15.9154C136.901 16.329 137.361 16.8712 137.361 17.5423C137.361 17.9191 137.236 18.2087 136.988 18.4108C136.74 18.6038 136.441 18.7003 136.093 18.7003C135.908 18.7003 135.715 18.6682 135.513 18.6038C135.32 18.5303 135.086 18.4522 134.81 18.3695C134.534 18.2776 134.203 18.1995 133.818 18.1351C133.441 18.0616 132.972 18.0248 132.412 18.0248C131.988 18.0248 131.602 18.0431 131.253 18.08C130.913 18.1167 130.619 18.181 130.37 18.2729C130.132 18.3649 129.943 18.4889 129.806 18.6452C129.676 18.8015 129.613 18.999 129.613 19.2381Z" fill="#868686"/>
<path d="M144.019 24.2976C144.019 24.7296 144.074 25.1064 144.185 25.4281C144.303 25.7498 144.465 26.021 144.667 26.2416C144.869 26.453 145.103 26.6138 145.369 26.724C145.646 26.8252 145.94 26.8758 146.252 26.8758C146.62 26.8758 146.974 26.8206 147.314 26.7103C147.654 26.6 147.953 26.4299 148.21 26.2001C148.476 25.9704 148.688 25.6809 148.845 25.3316C149 24.9824 149.079 24.5733 149.079 24.1046V18.259C149.079 17.3858 149.235 16.7149 149.547 16.2461C149.869 15.7774 150.416 15.543 151.188 15.543C152.006 15.543 152.589 15.7774 152.939 16.2461C153.298 16.7149 153.476 17.3858 153.476 18.259V26.6965C153.476 27.5697 153.298 28.2406 152.939 28.7093C152.589 29.1781 152.006 29.4125 151.188 29.4125C150.416 29.4125 149.869 29.1781 149.547 28.7093C149.235 28.2406 149.079 27.5697 149.079 26.6965C148.886 27.1193 148.633 27.5053 148.32 27.8546C148.016 28.2039 147.659 28.5072 147.245 28.7645C146.84 29.0127 146.39 29.2057 145.894 29.3436C145.407 29.4814 144.878 29.5504 144.308 29.5504C143.693 29.5504 143.1 29.4446 142.529 29.2333C141.969 29.0127 141.473 28.691 141.041 28.2681C140.609 27.8363 140.265 27.3031 140.007 26.669C139.749 26.0347 139.621 25.2949 139.621 24.4492V18.259C139.621 17.3858 139.778 16.7149 140.089 16.2461C140.412 15.7774 140.958 15.543 141.731 15.543C142.548 15.543 143.132 15.7774 143.481 16.2461C143.84 16.7149 144.019 17.3858 144.019 18.259V24.2976Z" fill="#868686"/>
<path d="M155.473 18.2589C155.473 17.3858 155.629 16.7148 155.942 16.2461C156.263 15.7774 156.81 15.5429 157.582 15.5429C158.401 15.5429 158.984 15.7774 159.334 16.2461C159.691 16.7148 159.871 17.3858 159.871 18.2589C160.055 17.8178 160.303 17.418 160.616 17.0595C160.937 16.6919 161.301 16.3794 161.704 16.122C162.119 15.8647 162.564 15.6671 163.042 15.5292C163.52 15.3821 164.016 15.3086 164.531 15.3086C165.009 15.3086 165.477 15.3729 165.937 15.5017C166.406 15.6211 166.839 15.8187 167.234 16.0945C167.637 16.3609 167.991 16.7011 168.295 17.1147C168.599 17.5282 168.833 18.0246 168.999 18.6037C169.283 17.9879 169.619 17.4686 170.004 17.0458C170.39 16.6229 170.809 16.2828 171.259 16.0255C171.709 15.7681 172.179 15.5844 172.666 15.474C173.162 15.3638 173.657 15.3086 174.154 15.3086C174.742 15.3086 175.303 15.4144 175.836 15.6257C176.379 15.8371 176.851 16.1588 177.256 16.5908C177.67 17.0135 177.996 17.5513 178.235 18.2039C178.483 18.8472 178.607 19.6009 178.607 20.4648V26.6965C178.607 27.5697 178.428 28.2406 178.069 28.7093C177.721 29.1781 177.136 29.4125 176.319 29.4125C175.547 29.4125 175 29.1781 174.679 28.7093C174.366 28.2406 174.209 27.5697 174.209 26.6965V20.6579C174.209 20.2442 174.154 19.8766 174.044 19.5549C173.934 19.224 173.777 18.9484 173.575 18.7278C173.382 18.498 173.153 18.3279 172.886 18.2177C172.62 18.0981 172.334 18.0384 172.031 18.0384C171.654 18.0384 171.296 18.0981 170.956 18.2177C170.616 18.3371 170.317 18.5209 170.06 18.7691C169.811 19.0173 169.609 19.3344 169.453 19.7204C169.306 20.1064 169.233 20.5706 169.233 21.1128V26.6965C169.233 27.5697 169.053 28.2406 168.695 28.7093C168.346 29.1781 167.762 29.4125 166.943 29.4125C166.171 29.4125 165.624 29.1781 165.303 28.7093C164.99 28.2406 164.834 27.5697 164.834 26.6965V20.9198C164.834 19.9732 164.636 19.2562 164.242 18.7691C163.855 18.282 163.327 18.0384 162.656 18.0384C162.261 18.0384 161.893 18.1027 161.553 18.2314C161.213 18.3601 160.919 18.5485 160.67 18.7967C160.422 19.0448 160.224 19.3527 160.077 19.7204C159.94 20.088 159.871 20.5108 159.871 20.9887V26.6965C159.871 27.5697 159.691 28.2406 159.334 28.7093C158.984 29.1781 158.401 29.4125 157.582 29.4125C156.81 29.4125 156.263 29.1781 155.942 28.7093C155.629 28.2406 155.473 27.5697 155.473 26.6965V18.2589Z" fill="#868686"/>
<path d="M20.4123 27.0591C16.5139 27.0591 13.3535 23.8987 13.3535 20.0002C13.3535 16.1018 16.5139 12.9414 20.4123 12.9414C24.3108 12.9414 27.4712 16.1018 27.4712 20.0002C27.4712 23.8987 24.3108 27.0591 20.4123 27.0591Z" fill="#868686"/>
<path d="M6.73733 22.413C4.69174 22.7738 3.2896 24.7498 4.07483 26.6728C5.17112 29.3575 6.92009 31.7495 9.18752 33.6187C12.4298 36.2913 16.5192 37.7194 20.7204 37.6461C24.9215 37.5728 28.9587 36.0028 32.1058 33.2186C34.3065 31.2715 35.9709 28.8199 36.9729 26.0986C37.6906 24.1493 36.2202 22.2234 34.1633 21.9343C32.1065 21.6453 30.2596 23.1425 29.2436 24.9542C28.6929 25.9362 27.978 26.8272 27.1215 27.5849C25.3159 29.1825 22.9995 30.0832 20.5892 30.1253C18.1787 30.1673 15.8324 29.348 13.9721 27.8145C13.0896 27.087 12.3441 26.2216 11.7594 25.2594C10.6809 23.4842 8.78292 22.0523 6.73733 22.413Z" fill="#868686"/>
<path d="M37.9233 22.2039C38.0134 21.4814 38.0597 20.7454 38.0597 19.9986C38.0597 10.2524 30.1589 2.35156 20.4127 2.35156C10.6665 2.35156 2.76562 10.2524 2.76562 19.9986C2.76562 20.9571 2.84204 21.8977 2.98911 22.8147C3.79967 21.7051 5.06475 20.913 6.43122 20.672C7.90968 20.4113 9.25337 20.7699 10.3895 21.4402C10.3224 20.9693 10.2876 20.488 10.2876 19.9986C10.2876 14.4067 14.8208 9.87356 20.4127 9.87356C26.0046 9.87356 30.5377 14.4067 30.5377 19.9986C30.5377 20.3673 30.518 20.7314 30.4796 21.0899C31.5917 20.3802 32.9223 19.9746 34.4093 20.1837C35.7829 20.3767 37.0744 21.1238 37.9233 22.2039Z" fill="#868686"/>
</svg>
