<svg width="104" height="20" viewBox="0 0 104 20" fill="none" xmlns="http://www.w3.org/2000/svg">
<path d="M9.52447 1.46353C9.67415 1.00287 10.3259 1.00287 10.4755 1.46353L12.1329 6.56434C12.1998 6.77035 12.3918 6.90983 12.6084 6.90983H17.9717C18.4561 6.90983 18.6575 7.52964 18.2656 7.81434L13.9266 10.9668C13.7514 11.0941 13.678 11.3198 13.745 11.5258L15.4023 16.6266C15.552 17.0873 15.0248 17.4704 14.6329 17.1857L10.2939 14.0332C10.1186 13.9059 9.88135 13.9059 9.70611 14.0332L5.3671 17.1857C4.97524 17.4704 4.448 17.0873 4.59768 16.6266L6.25503 11.5258C6.32197 11.3198 6.24864 11.0941 6.07339 10.9668L1.73438 7.81434C1.34253 7.52964 1.54392 6.90983 2.02828 6.90983H7.39159C7.6082 6.90983 7.80018 6.77035 7.86712 6.56434L9.52447 1.46353Z" fill="#FFCB6F"/>
<path d="M30.5245 1.46353C30.6741 1.00287 31.3259 1.00287 31.4755 1.46353L33.1329 6.56434C33.1998 6.77035 33.3918 6.90983 33.6084 6.90983H38.9717C39.4561 6.90983 39.6575 7.52964 39.2656 7.81434L34.9266 10.9668C34.7514 11.0941 34.678 11.3198 34.745 11.5258L36.4023 16.6266C36.552 17.0873 36.0248 17.4704 35.6329 17.1857L31.2939 14.0332C31.1186 13.9059 30.8814 13.9059 30.7061 14.0332L26.3671 17.1857C25.9752 17.4704 25.448 17.0873 25.5977 16.6266L27.255 11.5258C27.322 11.3198 27.2486 11.0941 27.0734 10.9668L22.7344 7.81434C22.3425 7.52964 22.5439 6.90983 23.0283 6.90983H28.3916C28.6082 6.90983 28.8002 6.77035 28.8671 6.56434L30.5245 1.46353Z" fill="#FFCB6F"/>
<path d="M51.5245 1.46353C51.6741 1.00287 52.3259 1.00287 52.4755 1.46353L54.1329 6.56434C54.1998 6.77035 54.3918 6.90983 54.6084 6.90983H59.9717C60.4561 6.90983 60.6575 7.52964 60.2656 7.81434L55.9266 10.9668C55.7514 11.0941 55.678 11.3198 55.745 11.5258L57.4023 16.6266C57.552 17.0873 57.0248 17.4704 56.6329 17.1857L52.2939 14.0332C52.1186 13.9059 51.8814 13.9059 51.7061 14.0332L47.3671 17.1857C46.9752 17.4704 46.448 17.0873 46.5977 16.6266L48.255 11.5258C48.322 11.3198 48.2486 11.0941 48.0734 10.9668L43.7344 7.81434C43.3425 7.52964 43.5439 6.90983 44.0283 6.90983H49.3916C49.6082 6.90983 49.8002 6.77035 49.8671 6.56434L51.5245 1.46353Z" fill="#FFCB6F"/>
<path d="M72.5245 1.46353C72.6741 1.00287 73.3259 1.00287 73.4755 1.46353L75.1329 6.56434C75.1998 6.77035 75.3918 6.90983 75.6084 6.90983H80.9717C81.4561 6.90983 81.6575 7.52964 81.2656 7.81434L76.9266 10.9668C76.7514 11.0941 76.678 11.3198 76.745 11.5258L78.4023 16.6266C78.552 17.0873 78.0248 17.4704 77.6329 17.1857L73.2939 14.0332C73.1186 13.9059 72.8814 13.9059 72.7061 14.0332L68.3671 17.1857C67.9752 17.4704 67.448 17.0873 67.5977 16.6266L69.255 11.5258C69.322 11.3198 69.2486 11.0941 69.0734 10.9668L64.7344 7.81434C64.3425 7.52964 64.5439 6.90983 65.0283 6.90983H70.3916C70.6082 6.90983 70.8002 6.77035 70.8671 6.56434L72.5245 1.46353Z" fill="#FFCB6F"/>
<path d="M93.5245 1.46353C93.6741 1.00287 94.3259 1.00287 94.4755 1.46353L96.1329 6.56434C96.1998 6.77035 96.3918 6.90983 96.6084 6.90983H101.972C102.456 6.90983 102.657 7.52964 102.266 7.81434L97.9266 10.9668C97.7514 11.0941 97.678 11.3198 97.745 11.5258L99.4023 16.6266C99.552 17.0873 99.0248 17.4704 98.6329 17.1857L94.2939 14.0332C94.1186 13.9059 93.8814 13.9059 93.7061 14.0332L89.3671 17.1857C88.9752 17.4704 88.448 17.0873 88.5977 16.6266L90.255 11.5258C90.322 11.3198 90.2486 11.0941 90.0734 10.9668L85.7344 7.81434C85.3425 7.52964 85.5439 6.90983 86.0283 6.90983H91.3916C91.6082 6.90983 91.8002 6.77035 91.8671 6.56434L93.5245 1.46353Z" fill="#FFCB6F"/>
</svg>
