<svg width="170" height="41" viewBox="0 0 170 41" fill="none" xmlns="http://www.w3.org/2000/svg">
<g clip-path="url(#clip0_250_43)">
<path d="M51.8594 28.1366H63.8114V24.5366H56.1074V10.9766H51.8594V28.1366Z" fill="#868686"/>
<path d="M70.8938 25.7396C69.1898 25.7396 68.3018 24.2516 68.3018 22.0196C68.3018 19.7876 69.1898 18.2756 70.8938 18.2756C72.5978 18.2756 73.5098 19.7876 73.5098 22.0196C73.5098 24.2516 72.5978 25.7396 70.8938 25.7396ZM70.9178 28.5236C74.8778 28.5236 77.4698 25.7156 77.4698 22.0196C77.4698 18.3236 74.8778 15.5156 70.9178 15.5156C66.9818 15.5156 64.3418 18.3236 64.3418 22.0196C64.3418 25.7156 66.9818 28.5236 70.9178 28.5236Z" fill="#868686"/>
<path d="M84.3245 32.3843C86.1485 32.3843 87.7565 31.9763 88.8365 31.0163C89.8205 30.1283 90.4685 28.7843 90.4685 26.9363V15.8483H86.7245V17.1683H86.6765C85.9565 16.1363 84.8526 15.4883 83.2206 15.4883C80.1726 15.4883 78.0605 18.0323 78.0605 21.6323C78.0605 25.4003 80.6285 27.4643 83.3885 27.4643C84.8765 27.4643 85.8125 26.8643 86.5325 26.0483H86.6285V27.2723C86.6285 28.7603 85.9326 29.6243 84.2766 29.6243C82.9806 29.6243 82.3325 29.0723 82.1165 28.4243H78.3245C78.7085 30.9923 80.9405 32.3843 84.3245 32.3843ZM84.3005 24.5603C82.8365 24.5603 81.8765 23.3603 81.8765 21.5123C81.8765 19.6403 82.8365 18.4403 84.3005 18.4403C85.9325 18.4403 86.7965 19.8323 86.7965 21.4883C86.7965 23.2163 86.0045 24.5603 84.3005 24.5603Z" fill="#868686"/>
<path d="M98.1653 25.7396C96.4613 25.7396 95.5733 24.2516 95.5733 22.0196C95.5733 19.7876 96.4613 18.2756 98.1653 18.2756C99.8693 18.2756 100.781 19.7876 100.781 22.0196C100.781 24.2516 99.8693 25.7396 98.1653 25.7396ZM98.1893 28.5236C102.149 28.5236 104.741 25.7156 104.741 22.0196C104.741 18.3236 102.149 15.5156 98.1893 15.5156C94.2533 15.5156 91.6133 18.3236 91.6133 22.0196C91.6133 25.7156 94.2533 28.5236 98.1893 28.5236Z" fill="#868686"/>
<path d="M105.885 28.1366H109.797V15.8486H105.885V28.1366ZM105.885 14.1446H109.797V10.9766H105.885V14.1446Z" fill="#868686"/>
<path d="M111.494 32.1923H115.406V26.8643H115.454C116.222 27.8963 117.35 28.5203 118.934 28.5203C122.15 28.5203 124.286 25.9763 124.286 21.9923C124.286 18.2963 122.294 15.4883 119.03 15.4883C117.35 15.4883 116.15 16.2323 115.31 17.3363H115.238V15.8483H111.494V32.1923ZM117.926 25.4963C116.246 25.4963 115.286 24.1283 115.286 22.1363C115.286 20.1443 116.15 18.6323 117.854 18.6323C119.534 18.6323 120.326 20.0243 120.326 22.1363C120.326 24.2243 119.414 25.4963 117.926 25.4963Z" fill="#868686"/>
<path d="M130.656 28.5203C133.872 28.5203 136.248 27.1283 136.248 24.4403C136.248 21.2963 133.704 20.7443 131.544 20.3843C129.984 20.0963 128.592 19.9763 128.592 19.1123C128.592 18.3443 129.336 17.9843 130.296 17.9843C131.376 17.9843 132.12 18.3203 132.264 19.4243H135.864C135.672 17.0003 133.8 15.4883 130.32 15.4883C127.416 15.4883 125.016 16.8323 125.016 19.4243C125.016 22.3043 127.296 22.8803 129.432 23.2403C131.064 23.5283 132.552 23.6483 132.552 24.7523C132.552 25.5443 131.808 25.9763 130.632 25.9763C129.336 25.9763 128.52 25.3763 128.376 24.1523H124.68C124.8 26.8643 127.056 28.5203 130.656 28.5203Z" fill="#868686"/>
<path d="M141.56 28.4996C143.264 28.4996 144.344 27.8276 145.232 26.6276H145.304V28.1396H149.048V15.8516H145.136V22.7156C145.136 24.1796 144.32 25.1876 142.976 25.1876C141.728 25.1876 141.128 24.4436 141.128 23.0996V15.8516H137.24V23.9156C137.24 26.6516 138.728 28.4996 141.56 28.4996Z" fill="#868686"/>
<path d="M150.75 28.1363H154.662V21.2483C154.662 19.7843 155.382 18.7523 156.606 18.7523C157.782 18.7523 158.334 19.5203 158.334 20.8403V28.1363H162.246V21.2483C162.246 19.7843 162.942 18.7523 164.19 18.7523C165.366 18.7523 165.918 19.5203 165.918 20.8403V28.1363H169.83V20.1443C169.83 17.3843 168.438 15.4883 165.654 15.4883C164.07 15.4883 162.75 16.1603 161.79 17.6483H161.742C161.118 16.3283 159.894 15.4883 158.286 15.4883C156.51 15.4883 155.334 16.3283 154.566 17.6003H154.494V15.8483H150.75V28.1363Z" fill="#868686"/>
<path fill-rule="evenodd" clip-rule="evenodd" d="M20.6836 40.1367C31.7293 40.1367 40.6836 31.1824 40.6836 20.1367C40.6836 9.09103 31.7293 0.136719 20.6836 0.136719C9.63788 0.136719 0.683594 9.09103 0.683594 20.1367C0.683594 31.1824 9.63788 40.1367 20.6836 40.1367ZM26.9229 9.45356C27.2266 8.37477 26.1797 7.73685 25.2236 8.41802L11.8767 17.9263C10.8398 18.665 11.0029 20.1367 12.1217 20.1367H15.6363V20.1095H22.4861L16.9048 22.0788L14.4443 30.8199C14.1406 31.8987 15.1874 32.5366 16.1436 31.8554L29.4905 22.3472C30.5274 21.6085 30.3642 20.1367 29.2455 20.1367H23.9157L26.9229 9.45356Z" fill="#868686"/>
</g>
<defs>
<clipPath id="clip0_250_43">
<rect width="170" height="41" fill="white"/>
</clipPath>
</defs>
</svg>
