<svg width="24" height="25" viewBox="0 0 24 25" fill="none" xmlns="http://www.w3.org/2000/svg">
<path d="M2.25 14.5H6.75C6.88807 14.5 7 14.6119 7 14.75V22.25C7 22.3881 6.88807 22.5 6.75 22.5H2.25C2.11193 22.5 2 22.3881 2 22.25V14.75C2 14.6119 2.11193 14.5 2.25 14.5Z" stroke="white"/>
<path d="M17.25 8.5H21.75C21.8881 8.5 22 8.61193 22 8.75V22.25C22 22.3881 21.8881 22.5 21.75 22.5H17.25C17.1119 22.5 17 22.3881 17 22.25V8.75C17 8.61193 17.1119 8.5 17.25 8.5Z" stroke="white"/>
<path d="M9.75 2.5H14.25C14.3881 2.5 14.5 2.61193 14.5 2.75V22.25C14.5 22.3881 14.3881 22.5 14.25 22.5H9.75C9.61193 22.5 9.5 22.3881 9.5 22.25V2.75C9.5 2.61193 9.61193 2.5 9.75 2.5Z" stroke="white"/>
</svg>
