<svg width="24" height="25" viewBox="0 0 24 25" fill="none" xmlns="http://www.w3.org/2000/svg">
<path d="M12.7499 3.53004V4.09804C12.7499 4.43204 12.8979 4.74804 13.1549 4.96204L14.2229 5.85204C14.6649 6.22104 14.7579 6.86204 14.4389 7.34204L13.9289 8.10804C13.6512 8.52425 13.2427 8.83601 12.7679 8.99404L12.6249 9.04204C12.4636 9.09599 12.3168 9.1864 12.1961 9.30627C12.0753 9.42613 11.9838 9.57221 11.9287 9.73317C11.8735 9.89413 11.8562 10.0656 11.8781 10.2343C11.9 10.4031 11.9605 10.5645 12.0549 10.706C12.4239 11.261 12.2239 12.013 11.6279 12.311L8.99991 13.625L9.42291 14.684C9.50822 14.8991 9.51263 15.1379 9.43531 15.3559C9.35799 15.574 9.20421 15.7567 9.00247 15.87C8.80073 15.9833 8.56474 16.0196 8.33826 15.9722C8.11179 15.9248 7.91021 15.7968 7.77091 15.612L7.09191 14.706C6.97683 14.5527 6.82447 14.4313 6.64929 14.3534C6.47411 14.2754 6.28192 14.2436 6.09097 14.2608C5.90002 14.2781 5.71664 14.3438 5.55824 14.4518C5.39984 14.5598 5.27167 14.7066 5.18591 14.878L4.49991 16.25L3.88791 16.403M12.7499 3.53004C11.169 3.39737 9.58104 3.68597 8.14705 4.36469C6.71306 5.0434 5.48396 6.08912 4.5843 7.39587C3.68464 8.70262 3.14639 10.224 3.0241 11.8057C2.9018 13.3875 3.1998 14.9735 3.88791 16.403M12.7499 3.53004C14.3176 3.66078 15.8236 4.20116 17.1179 5.0954C18.4121 5.98964 19.4494 7.2075 20.1262 8.62757C20.8031 10.0477 21.0959 11.6203 20.9755 13.1889C20.8551 14.7574 20.3256 16.2669 19.4399 17.567L19.2629 17.038C19.1135 16.5901 18.8269 16.2004 18.4437 15.9244C18.0605 15.6484 17.6002 15.4999 17.1279 15.5H16.4999L16.1759 15.176C16.0132 15.013 15.814 14.891 15.5948 14.8201C15.3756 14.7492 15.1427 14.7315 14.9154 14.7683C14.688 14.8051 14.4726 14.8955 14.287 15.0319C14.1014 15.1684 13.9509 15.347 13.8479 15.553L13.8119 15.626C13.7137 15.8227 13.5757 15.9967 13.4066 16.1372C13.2376 16.2777 13.0412 16.3815 12.8299 16.442L11.8399 16.724C11.2899 16.881 10.9459 17.426 11.0399 17.991L11.1129 18.429C11.1929 18.903 11.6029 19.25 12.0829 19.25C12.9289 19.25 13.6809 19.792 13.9479 20.595L14.1629 21.238M3.88791 16.403C4.78431 18.2668 6.29527 19.765 8.1666 20.6456C10.0379 21.5262 12.1554 21.7354 14.1629 21.238M14.1629 21.238C16.3128 20.7047 18.191 19.3982 19.4389 17.568M15.7499 9.50004C15.7499 10.396 15.3569 11.2 14.7339 11.75" stroke="white" stroke-linecap="round" stroke-linejoin="round"/>
</svg>
