<svg width="24" height="25" viewBox="0 0 24 25" fill="none" xmlns="http://www.w3.org/2000/svg">
<g clip-path="url(#clip0_12170_2455)">
<path d="M22.5598 24.0198C23.09 24.0198 23.5198 23.59 23.5198 23.0598V14.678C23.5198 14.5719 23.4338 14.486 23.3278 14.486H20.211C20.08 14.486 19.9874 14.3576 20.0289 14.2332L20.1111 13.9866C20.3617 13.2378 19.9581 12.4275 19.209 12.1764C19.062 12.1271 18.908 12.1022 18.7529 12.1025C17.9632 12.1014 17.3221 12.7409 17.3209 13.5306C17.3205 13.6856 17.3455 13.8397 17.3948 13.9866L17.477 14.2332C17.5184 14.3576 17.4259 14.486 17.2949 14.486H14.1781C14.072 14.486 13.9861 14.5719 13.9861 14.678V17.7947C13.9861 17.9258 14.1145 18.0183 14.2388 17.9769L14.4854 17.8947C15.2342 17.644 16.0446 18.0476 16.2956 18.7968C16.3449 18.9438 16.3699 19.0978 16.3695 19.2528C16.3707 20.0425 15.7311 20.6837 14.9414 20.6849C14.7864 20.6852 14.6324 20.6603 14.4854 20.611L14.2388 20.5288C14.1145 20.4873 13.9861 20.5798 13.9861 20.7109V23.8278C13.9861 23.9338 14.072 24.0198 14.1781 24.0198H22.5598Z" stroke="white"/>
<path d="M13.9864 14.4861H10.6776C10.5465 14.4861 10.454 14.6145 10.4954 14.7388L10.5776 14.9854C10.6269 15.1324 10.6519 15.2864 10.6515 15.4414C10.6504 16.2311 10.0092 16.8707 9.21949 16.8695C9.06447 16.8699 8.91043 16.8449 8.76346 16.7956C8.0143 16.5446 7.61069 15.7342 7.86134 14.9854L7.94355 14.7388C7.98499 14.6145 7.89246 14.4861 7.7614 14.4861H5.41264C4.88244 14.4861 4.45264 14.9159 4.45264 15.4461V23.0599C4.45264 23.5901 4.88244 24.0199 5.41264 24.0199H13.9864" stroke="white"/>
<path d="M23.5198 14.4864V5.91264C23.5198 5.38244 23.09 4.95264 22.5598 4.95264H14.1781C14.072 4.95264 13.9861 5.0386 13.9861 5.14464V8.26149C13.9861 8.39255 14.1145 8.48508 14.2388 8.44364L14.4854 8.36143C14.6324 8.31213 14.7864 8.28717 14.9414 8.28754C15.7311 8.28871 16.3707 8.92987 16.3695 9.71958C16.3699 9.8746 16.3449 10.0286 16.2956 10.1756C16.0446 10.9248 15.2342 11.3284 14.4854 11.0777L14.2388 10.9955C14.1145 10.9541 13.9861 11.0466 13.9861 11.1777V14.4864" stroke="white"/>
<path d="M10.2348 4.37611L10.4812 4.29397C10.6385 4.24121 10.8033 4.2145 10.9692 4.21489C10.9692 4.21489 10.9692 4.21489 10.9693 4.21489L10.969 4.31489L10.2348 4.37611ZM10.2348 4.37611C10.1752 4.39597 10.1137 4.35163 10.1137 4.28884V1.93998C10.1137 1.35456 9.6391 0.87998 9.05368 0.87998H1.43998C0.854559 0.87998 0.37998 1.35456 0.37998 1.93998V9.55377C0.37998 10.1392 0.854559 10.6138 1.43998 10.6138H3.78875C3.85154 10.6138 3.89588 10.6753 3.87602 10.7349L3.79386 10.9813L10.2348 4.37611ZM12.418 6.23475C12.1494 7.0362 11.2825 7.46803 10.4814 7.19993L12.418 6.23475ZM12.418 6.23475C12.4707 6.07758 12.4975 5.91285 12.4971 5.74707L12.418 6.23475ZM4.43869 11.1972L4.43873 11.1971L4.52112 10.9499C4.68777 10.45 4.31569 9.93377 3.78875 9.93377H1.43998C1.23011 9.93377 1.05998 9.76364 1.05998 9.55377V1.93998C1.05998 1.73011 1.23011 1.55998 1.43998 1.55998H9.05368C9.26355 1.55998 9.43368 1.73011 9.43368 1.93998V4.28884C9.43368 4.81578 9.94993 5.18786 10.4498 5.02121L10.6973 4.93872L10.6975 4.93866C10.7845 4.90947 10.8762 4.89467 10.9681 4.89488L10.9682 4.89488C11.4377 4.89558 11.8178 5.27682 11.8171 5.74606L11.8171 5.74641L11.8171 5.74827V5.7483C11.8173 5.84013 11.8025 5.93153 11.7733 6.01863L11.7733 6.01866C11.624 6.4642 11.1422 6.70404 10.6971 6.55506L10.697 6.55502L10.4498 6.47263C9.94993 6.30598 9.43368 6.67806 9.43368 7.205V9.55377C9.43368 9.76364 9.26355 9.93377 9.05368 9.93377H6.70491C6.17797 9.93377 5.80589 10.45 5.97254 10.9499L6.05503 11.1974L6.05509 11.1975C6.08428 11.2846 6.09908 11.3763 6.09887 11.4682V11.4683C6.09817 11.9378 5.71693 12.3179 5.24769 12.3172L5.24734 12.3172L5.24548 12.3172H5.24545C5.15362 12.3174 5.06222 12.3026 4.97512 12.2734L4.97509 12.2734C4.52955 12.1241 4.28971 11.6423 4.43869 11.1972ZM3.79382 10.9815C3.52572 11.7826 3.95755 12.6495 4.759 12.9181L3.79382 10.9815Z" fill="white" stroke="white" stroke-width="0.2"/>
</g>
<defs>
<clipPath id="clip0_12170_2455">
<rect width="24" height="24" fill="white" transform="translate(0 0.5)"/>
</clipPath>
</defs>
</svg>
