<svg width="60" height="60" viewBox="0 0 60 60" fill="none" xmlns="http://www.w3.org/2000/svg">
<g clip-path="url(#clip0_12196_2324)">
<path d="M35.7901 29.6859C43.9745 29.6859 50.6319 23.0273 50.6319 14.843C50.6319 6.6586 43.9745 0 35.7901 0C27.6057 0 20.9471 6.6586 20.9471 14.843C20.9471 23.0273 27.6057 29.6859 35.7901 29.6859ZM34.0323 6.11836V5.71523C34.0323 4.74375 34.8186 3.95742 35.7901 3.95742C36.7604 3.95742 37.5479 4.74375 37.5479 5.71523V6.1207C39.6397 6.56953 41.2135 8.43281 41.2135 10.657C41.2135 11.6273 40.426 12.4148 39.4557 12.4148C38.4842 12.4148 37.6979 11.6273 37.6979 10.657C37.6979 10.0371 37.1928 9.53203 36.5729 9.53203H34.9967C34.3768 9.53203 33.8717 10.0371 33.8717 10.657C33.872 10.8328 33.9133 11.006 33.9925 11.1629C34.0716 11.3198 34.1864 11.456 34.3276 11.5605L35.7901 12.6434L39.3432 15.273C40.5104 16.1367 41.2135 17.5184 41.2229 18.9715V18.9879C41.2311 20.2277 40.7565 21.3973 39.8846 22.2797C39.2377 22.9348 38.4291 23.3742 37.5479 23.5594V23.9707C37.5479 24.9422 36.7604 25.7285 35.7901 25.7285C34.8186 25.7285 34.0323 24.9422 34.0323 23.9707V23.5652C33.1745 23.3824 32.3858 22.9605 31.7483 22.3301C30.8659 21.4594 30.376 20.2969 30.369 19.057C30.3631 18.0867 31.1448 17.2945 32.1151 17.2887H32.1268C33.0924 17.2887 33.8788 18.0691 33.8846 19.0359C33.8852 19.1837 33.915 19.3298 33.9722 19.466C34.0294 19.6022 34.1129 19.7258 34.218 19.8297C34.323 19.9335 34.4476 20.0156 34.5844 20.0713C34.7213 20.1269 34.8678 20.155 35.0155 20.1539C35.9867 20.148 35.625 20.1502 36.5893 20.1445C37.2132 20.1396 37.7121 19.6332 37.7073 19.0113V18.9949C37.7049 18.6434 37.535 18.3082 37.2514 18.0984L35.7901 17.0168L32.2358 14.3871C31.0592 13.5152 30.3561 12.1207 30.3561 10.657C30.3561 8.42813 31.9346 6.56367 34.0323 6.11836ZM11.7408 38.1319C11.2902 37.3507 10.2893 37.0789 9.50329 37.5323L1.23477 42.3054C0.451843 42.7586 0.18325 43.7599 0.635242 44.5439L9.0861 59.1809C9.53845 59.9636 10.5392 60.2324 11.3236 59.7804L19.5921 55.0062C20.3762 54.5541 20.6437 53.5527 20.1916 52.7687L11.7408 38.1319ZM59.1185 35.2102C58.3228 34.1051 56.7829 33.8555 55.679 34.6512C52.3298 37.0641 45.8986 41.6977 45.3876 42.0668C45.1545 42.2657 44.9069 42.447 44.647 42.6094C43.6357 43.2457 42.4626 43.5855 41.238 43.5855H32.8181C31.8478 43.5855 31.0603 42.7992 31.0603 41.8277C31.0603 40.8551 31.849 40.0699 32.8181 40.0699H41.8228C43.1458 40.0699 44.2052 38.9684 44.1501 37.643C44.0986 36.3855 43.0251 35.4105 41.7665 35.4105H34.9122C34.4482 34.9195 33.9396 34.4695 33.3947 34.0676C31.5208 32.6859 29.2052 31.8691 26.6986 31.8691C22.2419 31.8691 17.8075 34.677 15.9689 38.4246L23.1595 50.8781H36.6478C39.2962 50.8781 41.9048 50.2008 44.2005 48.8801C44.9962 48.423 45.8482 47.8734 46.7716 47.2102C50.6411 44.4305 58.5525 38.6555 58.5583 38.652C59.6646 37.8574 59.9154 36.3152 59.1185 35.2102Z" fill="black" fill-opacity="0.4"/>
<path d="M35.7901 29.6859C43.9745 29.6859 50.6319 23.0273 50.6319 14.843C50.6319 6.6586 43.9745 0 35.7901 0C27.6057 0 20.9471 6.6586 20.9471 14.843C20.9471 23.0273 27.6057 29.6859 35.7901 29.6859ZM34.0323 6.11836V5.71523C34.0323 4.74375 34.8186 3.95742 35.7901 3.95742C36.7604 3.95742 37.5479 4.74375 37.5479 5.71523V6.1207C39.6397 6.56953 41.2135 8.43281 41.2135 10.657C41.2135 11.6273 40.426 12.4148 39.4557 12.4148C38.4842 12.4148 37.6979 11.6273 37.6979 10.657C37.6979 10.0371 37.1928 9.53203 36.5729 9.53203H34.9967C34.3768 9.53203 33.8717 10.0371 33.8717 10.657C33.872 10.8328 33.9133 11.006 33.9925 11.1629C34.0716 11.3198 34.1864 11.456 34.3276 11.5605L35.7901 12.6434L39.3432 15.273C40.5104 16.1367 41.2135 17.5184 41.2229 18.9715V18.9879C41.2311 20.2277 40.7565 21.3973 39.8846 22.2797C39.2377 22.9348 38.4291 23.3742 37.5479 23.5594V23.9707C37.5479 24.9422 36.7604 25.7285 35.7901 25.7285C34.8186 25.7285 34.0323 24.9422 34.0323 23.9707V23.5652C33.1745 23.3824 32.3858 22.9605 31.7483 22.3301C30.8659 21.4594 30.376 20.2969 30.369 19.057C30.3631 18.0867 31.1448 17.2945 32.1151 17.2887H32.1268C33.0924 17.2887 33.8788 18.0691 33.8846 19.0359C33.8852 19.1837 33.915 19.3298 33.9722 19.466C34.0294 19.6022 34.1129 19.7258 34.218 19.8297C34.323 19.9335 34.4476 20.0156 34.5844 20.0713C34.7213 20.1269 34.8678 20.155 35.0155 20.1539C35.9867 20.148 35.625 20.1502 36.5893 20.1445C37.2132 20.1396 37.7121 19.6332 37.7073 19.0113V18.9949C37.7049 18.6434 37.535 18.3082 37.2514 18.0984L35.7901 17.0168L32.2358 14.3871C31.0592 13.5152 30.3561 12.1207 30.3561 10.657C30.3561 8.42813 31.9346 6.56367 34.0323 6.11836ZM11.7408 38.1319C11.2902 37.3507 10.2893 37.0789 9.50329 37.5323L1.23477 42.3054C0.451843 42.7586 0.18325 43.7599 0.635242 44.5439L9.0861 59.1809C9.53845 59.9636 10.5392 60.2324 11.3236 59.7804L19.5921 55.0062C20.3762 54.5541 20.6437 53.5527 20.1916 52.7687L11.7408 38.1319ZM59.1185 35.2102C58.3228 34.1051 56.7829 33.8555 55.679 34.6512C52.3298 37.0641 45.8986 41.6977 45.3876 42.0668C45.1545 42.2657 44.9069 42.447 44.647 42.6094C43.6357 43.2457 42.4626 43.5855 41.238 43.5855H32.8181C31.8478 43.5855 31.0603 42.7992 31.0603 41.8277C31.0603 40.8551 31.849 40.0699 32.8181 40.0699H41.8228C43.1458 40.0699 44.2052 38.9684 44.1501 37.643C44.0986 36.3855 43.0251 35.4105 41.7665 35.4105H34.9122C34.4482 34.9195 33.9396 34.4695 33.3947 34.0676C31.5208 32.6859 29.2052 31.8691 26.6986 31.8691C22.2419 31.8691 17.8075 34.677 15.9689 38.4246L23.1595 50.8781H36.6478C39.2962 50.8781 41.9048 50.2008 44.2005 48.8801C44.9962 48.423 45.8482 47.8734 46.7716 47.2102C50.6411 44.4305 58.5525 38.6555 58.5583 38.652C59.6646 37.8574 59.9154 36.3152 59.1185 35.2102Z" fill="url(#paint0_linear_12196_2324)"/>
</g>
<defs>
<linearGradient id="paint0_linear_12196_2324" x1="23" y1="3.23031e-08" x2="25.8848" y2="59.861" gradientUnits="userSpaceOnUse">
<stop stop-color="#9A88F5"/>
<stop offset="1" stop-color="white"/>
</linearGradient>
<clipPath id="clip0_12196_2324">
<rect width="60" height="60" fill="white"/>
</clipPath>
</defs>
</svg>
