<svg width="60" height="60" viewBox="0 0 60 60" fill="none" xmlns="http://www.w3.org/2000/svg">
<path d="M52.5937 51.1874H51.0937V23.4375C51.0937 22.6608 50.4641 22.0312 49.6875 22.0312H44.0625C43.2858 22.0312 42.6562 22.6608 42.6562 23.4375V51.1874H39.8437V32.8125C39.8437 32.0358 39.2141 31.4062 38.4375 31.4062H32.8125C32.0358 31.4062 31.4062 32.0358 31.4062 32.8125V51.1874H28.5937V37.9687C28.5937 37.1921 27.9641 36.5625 27.1875 36.5625H21.5625C20.7859 36.5625 20.1562 37.1921 20.1562 37.9687V51.1874H17.3437V41.3437C17.3437 40.5671 16.7141 39.9375 15.9375 39.9375H10.3125C9.53587 39.9375 8.90625 40.5671 8.90625 41.3437V51.1874H7.40625C6.62962 51.1874 6 51.8171 6 52.5937C6 53.3703 6.62962 53.9999 7.40625 53.9999H52.5937C53.3703 53.9999 53.9999 53.3703 53.9999 52.5937C53.9999 51.8171 53.3703 51.1874 52.5937 51.1874Z" fill="black" fill-opacity="0.4"/>
<path d="M52.5937 51.1874H51.0937V23.4375C51.0937 22.6608 50.4641 22.0312 49.6875 22.0312H44.0625C43.2858 22.0312 42.6562 22.6608 42.6562 23.4375V51.1874H39.8437V32.8125C39.8437 32.0358 39.2141 31.4062 38.4375 31.4062H32.8125C32.0358 31.4062 31.4062 32.0358 31.4062 32.8125V51.1874H28.5937V37.9687C28.5937 37.1921 27.9641 36.5625 27.1875 36.5625H21.5625C20.7859 36.5625 20.1562 37.1921 20.1562 37.9687V51.1874H17.3437V41.3437C17.3437 40.5671 16.7141 39.9375 15.9375 39.9375H10.3125C9.53587 39.9375 8.90625 40.5671 8.90625 41.3437V51.1874H7.40625C6.62962 51.1874 6 51.8171 6 52.5937C6 53.3703 6.62962 53.9999 7.40625 53.9999H52.5937C53.3703 53.9999 53.9999 53.3703 53.9999 52.5937C53.9999 51.8171 53.3703 51.1874 52.5937 51.1874Z" fill="url(#paint0_linear_12200_16877)"/>
<path d="M7.40625 36.2163C16.1829 36.2163 25.7006 33.0642 34.2062 27.3407C40.8676 22.858 46.4205 17.1315 49.8697 11.2677L51.2355 16.3646C51.4038 16.9929 52.2167 17.5357 52.9577 17.3589C53.7132 17.1787 54.153 16.3868 53.952 15.6367L51.6493 7.0426C51.4482 6.29251 50.6774 5.8472 49.927 6.04829L41.3329 8.35107C40.5827 8.55207 40.1376 9.32316 40.3386 10.0733C40.5397 10.8235 41.3104 11.2688 42.0609 11.0677L47.5973 9.58416C44.3793 15.176 39.0611 20.6836 32.6359 25.0072C24.5896 30.4219 15.6295 33.4038 7.40625 33.4038C6.62962 33.4038 6 34.0334 6 34.81C6 35.5866 6.62962 36.2163 7.40625 36.2163Z" fill="black" fill-opacity="0.4"/>
<path d="M7.40625 36.2163C16.1829 36.2163 25.7006 33.0642 34.2062 27.3407C40.8676 22.858 46.4205 17.1315 49.8697 11.2677L51.2355 16.3646C51.4038 16.9929 52.2167 17.5357 52.9577 17.3589C53.7132 17.1787 54.153 16.3868 53.952 15.6367L51.6493 7.0426C51.4482 6.29251 50.6774 5.8472 49.927 6.04829L41.3329 8.35107C40.5827 8.55207 40.1376 9.32316 40.3386 10.0733C40.5397 10.8235 41.3104 11.2688 42.0609 11.0677L47.5973 9.58416C44.3793 15.176 39.0611 20.6836 32.6359 25.0072C24.5896 30.4219 15.6295 33.4038 7.40625 33.4038C6.62962 33.4038 6 34.0334 6 34.81C6 35.5866 6.62962 36.2163 7.40625 36.2163Z" fill="url(#paint1_linear_12200_16877)"/>
<defs>
<linearGradient id="paint0_linear_12200_16877" x1="24.3213" y1="22.0312" x2="25.3321" y2="53.968" gradientUnits="userSpaceOnUse">
<stop stop-color="#9A88F5"/>
<stop offset="1" stop-color="white"/>
</linearGradient>
<linearGradient id="paint1_linear_12200_16877" x1="24.3215" y1="6" x2="25.2247" y2="36.1893" gradientUnits="userSpaceOnUse">
<stop stop-color="#9A88F5"/>
<stop offset="1" stop-color="white"/>
</linearGradient>
</defs>
</svg>
