<svg width="50" height="50" viewBox="0 0 50 50" fill="none" xmlns="http://www.w3.org/2000/svg">
<g clip-path="url(#clip0_12200_16887)">
<path d="M47.1109 18.5734L43.6297 18.1359L43.025 16.6797L45.1797 13.9062C45.672 13.2717 45.9161 12.4795 45.8664 11.6779C45.8166 10.8763 45.4764 10.1204 44.9094 9.55156L40.4453 5.09062C39.877 4.52386 39.1216 4.18373 38.3206 4.13397C37.5195 4.08421 36.7278 4.32823 36.0938 4.82031L33.3203 6.975L31.8641 6.37031L31.4266 2.88906C31.3262 2.09236 30.939 1.35953 30.3373 0.827749C29.7357 0.295967 28.9608 0.00168865 28.1578 0L21.8438 0C21.0403 0.00126371 20.2649 0.295316 19.6626 0.827107C19.0604 1.3589 18.6726 2.09196 18.5719 2.88906L18.1359 6.37969L16.6875 6.97969L13.9062 4.82031C13.2718 4.32769 12.4795 4.08336 11.6779 4.13312C10.8762 4.18288 10.1202 4.52332 9.55156 5.09062L5.09062 9.55469C4.52393 10.1229 4.18373 10.8782 4.13369 11.6792C4.08364 12.4801 4.32719 13.2719 4.81875 13.9062L6.97344 16.6766L6.37031 18.1328L2.8875 18.5703C2.09041 18.6707 1.35734 19.0585 0.825741 19.6608C0.294146 20.2632 0.0005459 21.0388 0 21.8422L0 28.1578C0.00130592 28.9607 0.295248 29.7355 0.826773 30.3372C1.3583 30.9389 2.09095 31.3262 2.8875 31.4266L6.37969 31.8641L6.97969 33.3125L4.81875 36.0938C4.32633 36.7283 4.08226 37.5208 4.13231 38.3224C4.18236 39.1241 4.52309 39.88 5.09062 40.4484L9.55469 44.9141C10.1242 45.4799 10.8801 45.8192 11.6814 45.8687C12.4827 45.9181 13.2746 45.6744 13.9094 45.1828L16.6875 43.0234L18.1359 43.6234L18.5719 47.1141C18.6733 47.9106 19.0614 48.6429 19.6636 49.1741C20.2657 49.7052 21.0408 49.9988 21.8438 50H28.1578C28.9608 49.9983 29.7357 49.704 30.3373 49.1723C30.939 48.6405 31.3262 47.9076 31.4266 47.1109L31.8641 43.6203L33.3125 43.0203L36.0938 45.1797C36.7283 45.672 37.5205 45.9161 38.3221 45.8664C39.1237 45.8166 39.8796 45.4764 40.4484 44.9094L44.9125 40.4453C45.4797 39.877 45.8201 39.1212 45.8698 38.3198C45.9196 37.5184 45.6753 36.7264 45.1828 36.0922L43.0203 33.3125L43.6203 31.8641L47.1109 31.4266C47.9076 31.3262 48.6405 30.939 49.1723 30.3373C49.704 29.7357 49.9983 28.9608 50 28.1578V21.8422C49.9983 21.0392 49.704 20.2643 49.1723 19.6627C48.6405 19.061 47.9076 18.6738 47.1109 18.5734ZM25 39.0625C22.2187 39.0625 19.4999 38.2378 17.1873 36.6925C14.8747 35.1473 13.0723 32.9511 12.0079 30.3815C10.9436 27.8119 10.6651 24.9844 11.2077 22.2565C11.7503 19.5287 13.0896 17.023 15.0563 15.0563C17.023 13.0896 19.5287 11.7503 22.2565 11.2077C24.9844 10.6651 27.8119 10.9436 30.3815 12.0079C32.9511 13.0723 35.1473 14.8747 36.6925 17.1873C38.2378 19.4999 39.0625 22.2187 39.0625 25C39.0584 28.7283 37.5755 32.3028 34.9391 34.9391C32.3028 37.5755 28.7283 39.0584 25 39.0625Z" fill="#BBADFF"/>
<path d="M25 14.0625C22.8368 14.0625 20.7221 14.704 18.9235 15.9058C17.1248 17.1076 15.7229 18.8158 14.8951 20.8144C14.0672 22.813 13.8506 25.0121 14.2727 27.1338C14.6947 29.2555 15.7364 31.2043 17.266 32.734C18.7957 34.2636 20.7445 35.3053 22.8662 35.7273C24.9879 36.1494 27.187 35.9328 29.1856 35.1049C31.1842 34.2771 32.8924 32.8752 34.0942 31.0765C35.296 29.2779 35.9375 27.1632 35.9375 25C35.9342 22.1002 34.7808 19.3201 32.7303 17.2697C30.6799 15.2192 27.8998 14.0658 25 14.0625ZM27.9203 29.9187C27.5566 30.3569 27.0901 30.6983 26.5625 30.9125V31.25C26.5625 31.6644 26.3979 32.0618 26.1049 32.3549C25.8118 32.6479 25.4144 32.8125 25 32.8125C24.5856 32.8125 24.1882 32.6479 23.8952 32.3549C23.6021 32.0618 23.4375 31.6644 23.4375 31.25V30.7984C22.9146 30.5873 22.423 30.3055 21.9766 29.9609C21.6488 29.7073 21.4352 29.3339 21.3827 28.9228C21.3567 28.7192 21.3711 28.5125 21.425 28.3145C21.4789 28.1165 21.5713 27.9311 21.6969 27.7687C21.8225 27.6064 21.9788 27.4705 22.1569 27.3686C22.335 27.2667 22.5315 27.2009 22.735 27.1749C23.1462 27.1224 23.5613 27.2354 23.8891 27.4891C23.9156 27.5094 25.1469 28.3609 25.5313 27.9047C25.7641 27.6281 25.7313 27.5016 25.7203 27.4594C25.5878 27.215 25.4066 27.0005 25.1878 26.829C24.969 26.6575 24.7174 26.5328 24.4484 26.4625C23.7036 26.2343 23.0243 25.8307 22.4678 25.2855C21.9112 24.7404 21.4936 24.0697 21.25 23.3297C21.11 22.7622 21.1119 22.169 21.2555 21.6025C21.3991 21.036 21.68 20.5135 22.0734 20.0812C22.4386 19.6401 22.9072 19.296 23.4375 19.0797V18.75C23.4375 18.3356 23.6021 17.9382 23.8952 17.6451C24.1882 17.3521 24.5856 17.1875 25 17.1875C25.4144 17.1875 25.8118 17.3521 26.1049 17.6451C26.3979 17.9382 26.5625 18.3356 26.5625 18.75V19.1984C27.0855 19.4102 27.577 19.6925 28.0234 20.0375C28.1855 20.1634 28.3213 20.32 28.4228 20.4983C28.5244 20.6766 28.5899 20.8732 28.6155 21.0769C28.6411 21.2805 28.6264 21.4872 28.5721 21.6851C28.5178 21.8831 28.4251 22.0684 28.2992 22.2305C28.1733 22.3926 28.0168 22.5283 27.8384 22.6299C27.6601 22.7315 27.4635 22.7969 27.2599 22.8225C27.0562 22.8481 26.8495 22.8334 26.6516 22.7791C26.4537 22.7249 26.2684 22.6321 26.1063 22.5062C26.1063 22.5062 24.8563 21.6359 24.4703 22.0953C24.2359 22.3719 24.2688 22.4984 24.2797 22.5406C24.4122 22.785 24.5935 22.9995 24.8122 23.171C25.031 23.3425 25.2826 23.4672 25.5516 23.5375C26.2968 23.7655 26.9763 24.1692 27.533 24.7147C28.0896 25.2602 28.507 25.9314 28.75 26.6719C28.8891 27.2396 28.8861 27.8328 28.7414 28.3991C28.5967 28.9654 28.3147 29.4873 27.9203 29.9187Z" fill="#BBADFF"/>
<path d="M47.1109 18.5734L43.6297 18.1359L43.025 16.6797L45.1797 13.9062C45.672 13.2717 45.9161 12.4795 45.8664 11.6779C45.8166 10.8763 45.4764 10.1204 44.9094 9.55156L40.4453 5.09062C39.877 4.52386 39.1216 4.18373 38.3206 4.13397C37.5195 4.08421 36.7278 4.32823 36.0938 4.82031L33.3203 6.975L31.8641 6.37031L31.4266 2.88906C31.3262 2.09236 30.939 1.35953 30.3373 0.827749C29.7357 0.295967 28.9608 0.00168865 28.1578 0L21.8438 0C21.0403 0.00126371 20.2649 0.295316 19.6626 0.827107C19.0604 1.3589 18.6726 2.09196 18.5719 2.88906L18.1359 6.37969L16.6875 6.97969L13.9062 4.82031C13.2718 4.32769 12.4795 4.08336 11.6779 4.13312C10.8762 4.18288 10.1202 4.52332 9.55156 5.09062L5.09062 9.55469C4.52393 10.1229 4.18373 10.8782 4.13369 11.6792C4.08364 12.4801 4.32719 13.2719 4.81875 13.9062L6.97344 16.6766L6.37031 18.1328L2.8875 18.5703C2.09041 18.6707 1.35734 19.0585 0.825741 19.6608C0.294146 20.2632 0.0005459 21.0388 0 21.8422L0 28.1578C0.00130592 28.9607 0.295248 29.7355 0.826773 30.3372C1.3583 30.9389 2.09095 31.3262 2.8875 31.4266L6.37969 31.8641L6.97969 33.3125L4.81875 36.0938C4.32633 36.7283 4.08226 37.5208 4.13231 38.3224C4.18236 39.1241 4.52309 39.88 5.09062 40.4484L9.55469 44.9141C10.1242 45.4799 10.8801 45.8192 11.6814 45.8687C12.4827 45.9181 13.2746 45.6744 13.9094 45.1828L16.6875 43.0234L18.1359 43.6234L18.5719 47.1141C18.6733 47.9106 19.0614 48.6429 19.6636 49.1741C20.2657 49.7052 21.0408 49.9988 21.8438 50H28.1578C28.9608 49.9983 29.7357 49.704 30.3373 49.1723C30.939 48.6405 31.3262 47.9076 31.4266 47.1109L31.8641 43.6203L33.3125 43.0203L36.0938 45.1797C36.7283 45.672 37.5205 45.9161 38.3221 45.8664C39.1237 45.8166 39.8796 45.4764 40.4484 44.9094L44.9125 40.4453C45.4797 39.877 45.8201 39.1212 45.8698 38.3198C45.9196 37.5184 45.6753 36.7264 45.1828 36.0922L43.0203 33.3125L43.6203 31.8641L47.1109 31.4266C47.9076 31.3262 48.6405 30.939 49.1723 30.3373C49.704 29.7357 49.9983 28.9608 50 28.1578V21.8422C49.9983 21.0392 49.704 20.2643 49.1723 19.6627C48.6405 19.061 47.9076 18.6738 47.1109 18.5734ZM25 39.0625C22.2187 39.0625 19.4999 38.2378 17.1873 36.6925C14.8747 35.1473 13.0723 32.9511 12.0079 30.3815C10.9436 27.8119 10.6651 24.9844 11.2077 22.2565C11.7503 19.5287 13.0896 17.023 15.0563 15.0563C17.023 13.0896 19.5287 11.7503 22.2565 11.2077C24.9844 10.6651 27.8119 10.9436 30.3815 12.0079C32.9511 13.0723 35.1473 14.8747 36.6925 17.1873C38.2378 19.4999 39.0625 22.2187 39.0625 25C39.0584 28.7283 37.5755 32.3028 34.9391 34.9391C32.3028 37.5755 28.7283 39.0584 25 39.0625Z" fill="#BBADFF"/>
<path d="M25 14.0625C22.8368 14.0625 20.7221 14.704 18.9235 15.9058C17.1248 17.1076 15.7229 18.8158 14.8951 20.8144C14.0672 22.813 13.8506 25.0121 14.2727 27.1338C14.6947 29.2555 15.7364 31.2043 17.266 32.734C18.7957 34.2636 20.7445 35.3053 22.8662 35.7273C24.9879 36.1494 27.187 35.9328 29.1856 35.1049C31.1842 34.2771 32.8924 32.8752 34.0942 31.0765C35.296 29.2779 35.9375 27.1632 35.9375 25C35.9342 22.1002 34.7808 19.3201 32.7303 17.2697C30.6799 15.2192 27.8998 14.0658 25 14.0625ZM27.9203 29.9187C27.5566 30.3569 27.0901 30.6983 26.5625 30.9125V31.25C26.5625 31.6644 26.3979 32.0618 26.1049 32.3549C25.8118 32.6479 25.4144 32.8125 25 32.8125C24.5856 32.8125 24.1882 32.6479 23.8952 32.3549C23.6021 32.0618 23.4375 31.6644 23.4375 31.25V30.7984C22.9146 30.5873 22.423 30.3055 21.9766 29.9609C21.6488 29.7073 21.4352 29.3339 21.3827 28.9228C21.3567 28.7192 21.3711 28.5125 21.425 28.3145C21.4789 28.1165 21.5713 27.9311 21.6969 27.7687C21.8225 27.6064 21.9788 27.4705 22.1569 27.3686C22.335 27.2667 22.5315 27.2009 22.735 27.1749C23.1462 27.1224 23.5613 27.2354 23.8891 27.4891C23.9156 27.5094 25.1469 28.3609 25.5313 27.9047C25.7641 27.6281 25.7313 27.5016 25.7203 27.4594C25.5878 27.215 25.4066 27.0005 25.1878 26.829C24.969 26.6575 24.7174 26.5328 24.4484 26.4625C23.7036 26.2343 23.0243 25.8307 22.4678 25.2855C21.9112 24.7404 21.4936 24.0697 21.25 23.3297C21.11 22.7622 21.1119 22.169 21.2555 21.6025C21.3991 21.036 21.68 20.5135 22.0734 20.0812C22.4386 19.6401 22.9072 19.296 23.4375 19.0797V18.75C23.4375 18.3356 23.6021 17.9382 23.8952 17.6451C24.1882 17.3521 24.5856 17.1875 25 17.1875C25.4144 17.1875 25.8118 17.3521 26.1049 17.6451C26.3979 17.9382 26.5625 18.3356 26.5625 18.75V19.1984C27.0855 19.4102 27.577 19.6925 28.0234 20.0375C28.1855 20.1634 28.3213 20.32 28.4228 20.4983C28.5244 20.6766 28.5899 20.8732 28.6155 21.0769C28.6411 21.2805 28.6264 21.4872 28.5721 21.6851C28.5178 21.8831 28.4251 22.0684 28.2992 22.2305C28.1733 22.3926 28.0168 22.5283 27.8384 22.6299C27.6601 22.7315 27.4635 22.7969 27.2599 22.8225C27.0562 22.8481 26.8495 22.8334 26.6516 22.7791C26.4537 22.7249 26.2684 22.6321 26.1063 22.5062C26.1063 22.5062 24.8563 21.6359 24.4703 22.0953C24.2359 22.3719 24.2688 22.4984 24.2797 22.5406C24.4122 22.785 24.5935 22.9995 24.8122 23.171C25.031 23.3425 25.2826 23.4672 25.5516 23.5375C26.2968 23.7655 26.9763 24.1692 27.533 24.7147C28.0896 25.2602 28.507 25.9314 28.75 26.6719C28.8891 27.2396 28.8861 27.8328 28.7414 28.3991C28.5967 28.9654 28.3147 29.4873 27.9203 29.9187Z" fill="#BBADFF"/>
</g>
<defs>
<clipPath id="clip0_12200_16887">
<rect width="50" height="50" fill="white"/>
</clipPath>
</defs>
</svg>
