<svg width="61" height="60" viewBox="0 0 61 60" fill="none" xmlns="http://www.w3.org/2000/svg">
<path d="M48.375 23.9249C49.6125 20.8124 51.5625 17.7374 54.1687 14.7749C54.9938 13.8374 55.1063 12.4874 54.4313 11.4374C53.9062 10.6124 53.0437 10.1624 52.1062 10.1624C51.8437 10.1624 51.5812 10.1812 51.3187 10.2749C45.8062 11.8874 32.925 17.6062 32.5688 35.9437C32.4375 43.0124 37.6125 49.0874 44.3438 49.7812C48.075 50.1562 51.7875 48.9374 54.5438 46.4624C55.9069 45.2261 56.9965 43.7184 57.7424 42.0361C58.4883 40.3537 58.8741 38.534 58.875 36.6937C58.875 30.5062 54.4875 25.0874 48.375 23.9249ZM14.4188 49.7812C18.1313 50.1562 21.8438 48.9374 24.6 46.4624C25.9633 45.2262 27.0529 43.7185 27.7988 42.0361C28.5447 40.3538 28.9305 38.534 28.9313 36.6937C28.9313 30.5062 24.5438 25.0874 18.4313 23.9249C19.6688 20.8124 21.6188 17.7374 24.225 14.7749C25.05 13.8374 25.1625 12.4874 24.4875 11.4374C23.9625 10.6124 23.1 10.1624 22.1625 10.1624C21.9 10.1624 21.6375 10.1812 21.375 10.2749C15.8625 11.8874 2.98125 17.6062 2.625 35.9437V36.2062C2.625 43.1624 7.74375 49.0874 14.4188 49.7812Z" fill="#BBADFF"/>
</svg>
