<svg width="658" height="422" viewBox="0 0 658 422" fill="none" xmlns="http://www.w3.org/2000/svg">
<g filter="url(#filter0_d_288_19)">
<mask id="path-1-inside-1_288_19" fill="white">
<path d="M34.7383 234.551C22.7326 227.619 22.7326 216.381 34.7383 209.449L344.509 30.603C356.515 23.6715 375.98 23.6715 387.986 30.603L572.762 137.283C584.767 144.215 584.767 155.453 572.762 162.385L262.991 341.231C250.985 348.162 231.52 348.162 219.514 341.231L34.7383 234.551Z"/>
</mask>
<path d="M34.7383 234.551C22.7326 227.619 22.7326 216.381 34.7383 209.449L344.509 30.603C356.515 23.6715 375.98 23.6715 387.986 30.603L572.762 137.283C584.767 144.215 584.767 155.453 572.762 162.385L262.991 341.231C250.985 348.162 231.52 348.162 219.514 341.231L34.7383 234.551Z" fill="#BBADFF" fill-opacity="0.6"/>
<path d="M32.5645 235.806C20.2586 228.701 20.2586 217.182 32.5645 210.077L343.966 30.2892C356.272 23.1844 376.224 23.1844 388.529 30.2892L387.443 30.9168C375.737 24.1585 356.758 24.1585 345.053 30.9168L35.2818 209.763C24.4766 216.002 25.2066 226.537 36.9121 233.296L32.5645 235.806ZM574.936 137.911C587.241 145.016 587.241 156.535 574.936 163.64L265.164 342.486C251.958 350.111 230.546 350.111 217.34 342.486L221.688 339.976C232.493 346.214 250.012 346.214 260.817 339.976L570.588 161.129C582.293 154.371 583.023 143.835 572.218 137.597L574.936 137.911ZM265.164 342.486C251.958 350.111 230.546 350.111 217.34 342.486L32.5645 235.806C20.2586 228.701 20.2586 217.182 32.5645 210.077L35.2818 209.763C24.4766 216.002 25.2066 226.537 36.9121 233.296L221.688 339.976C232.493 346.214 250.012 346.214 260.817 339.976L265.164 342.486ZM343.966 30.2892C356.272 23.1844 376.224 23.1844 388.529 30.2892L574.936 137.911C587.241 145.016 587.241 156.535 574.936 163.64L570.588 161.129C582.293 154.371 583.023 143.835 572.218 137.597L387.443 30.9168C375.737 24.1585 356.758 24.1585 345.053 30.9168L343.966 30.2892Z" fill="white" fill-opacity="0.5" mask="url(#path-1-inside-1_288_19)"/>
<g clip-path="url(#clip0_288_19)">
<path d="M120.313 199.938C115.333 202.5 113.32 206.043 117.822 208.359C122.984 211.015 131.232 207.138 133.826 208.472C134.918 209.034 134.57 210.219 132.306 211.384C129.092 213.037 125.325 213.57 125.325 213.57L128.84 216.435C128.84 216.435 132.76 215.606 136.433 213.716C141.877 210.915 143.605 207.396 139.026 205.041C133.571 202.234 125.301 206.133 122.894 204.895C122.038 204.455 122.189 203.412 124.447 202.251C126.994 200.941 130.065 200.382 130.065 200.382L126.684 197.608C126.684 197.608 123.501 198.297 120.313 199.938ZM75.0884 223.546L75.6301 223.949C75.6301 223.949 78.0868 223.057 80.6954 222.458C83.9526 221.634 84.6076 221.793 86.5136 222.353L107.197 228.406L113.173 225.332L101.602 209.905L95.6396 212.973L103.851 223.284L89.4618 218.366C87.8699 217.774 85.9667 217.949 84.594 218.655L75.0884 223.546ZM104 208.671L120.1 221.768L125.786 218.842L109.669 205.755L104 208.671ZM135.712 192.356C134.341 193.061 134.307 193.792 134.985 194.689L145.529 208.685L151.491 205.617L149.499 203.405L156.764 199.668L160.611 200.926L165.872 198.219L140.504 189.89L135.712 192.356ZM142.101 194.845L151.665 197.947L146.93 200.383L142.101 194.845Z" fill="white"/>
</g>
<path d="M198.251 295.12C196.674 294.209 195.828 293.286 195.712 292.349C195.596 291.411 196.211 290.555 197.556 289.778C198.9 289.002 200.384 288.647 202.008 288.714C203.631 288.781 205.231 289.27 206.807 290.18L209.52 291.746C211.144 292.683 212.001 293.614 212.094 294.537C212.187 295.461 211.561 296.311 210.216 297.088C208.871 297.864 207.399 298.226 205.799 298.172C204.199 298.119 202.587 297.623 200.964 296.686L198.251 295.12ZM208.894 296.325C209.833 295.782 210.21 295.19 210.025 294.547C209.839 293.891 209.149 293.219 207.955 292.529L205.451 291.083C204.894 290.762 204.332 290.504 203.764 290.31C203.184 290.11 202.611 289.986 202.042 289.939C201.474 289.879 200.918 289.899 200.373 289.999C199.84 290.093 199.341 290.274 198.877 290.541C198.402 290.816 198.083 291.107 197.921 291.415C197.759 291.723 197.724 292.044 197.816 292.379C197.909 292.7 198.13 293.028 198.477 293.363C198.814 293.691 199.26 294.015 199.816 294.337L202.321 295.782C203.515 296.472 204.674 296.874 205.799 296.987C206.923 297.088 207.955 296.867 208.894 296.325ZM202.773 294.076C202.471 293.902 202.321 293.687 202.321 293.433C202.321 293.179 202.471 292.964 202.773 292.79C203.074 292.616 203.445 292.529 203.886 292.529C204.326 292.529 204.697 292.616 204.999 292.79C205.3 292.964 205.451 293.179 205.451 293.433C205.451 293.687 205.3 293.902 204.999 294.076C204.697 294.25 204.326 294.337 203.886 294.337C203.445 294.337 203.074 294.25 202.773 294.076ZM208.9 288.972C207.323 288.062 206.477 287.138 206.361 286.201C206.245 285.264 206.859 284.407 208.204 283.63C209.549 282.854 211.033 282.499 212.656 282.566C214.279 282.633 215.879 283.122 217.456 284.032L220.169 285.598C221.792 286.535 222.65 287.466 222.743 288.39C222.835 289.313 222.209 290.163 220.864 290.94C219.52 291.716 218.047 292.078 216.447 292.024C214.847 291.971 213.236 291.475 211.613 290.538L208.9 288.972ZM219.543 290.177C220.482 289.635 220.859 289.042 220.673 288.4C220.488 287.744 219.798 287.071 218.604 286.381L216.099 284.936C215.543 284.614 214.981 284.357 214.412 284.163C213.833 283.962 213.259 283.838 212.691 283.791C212.123 283.731 211.566 283.751 211.021 283.851C210.488 283.945 209.989 284.126 209.526 284.393C209.05 284.668 208.732 284.959 208.569 285.267C208.407 285.575 208.372 285.896 208.465 286.231C208.558 286.552 208.778 286.88 209.126 287.215C209.462 287.543 209.908 287.867 210.465 288.189L212.969 289.635C214.163 290.324 215.323 290.726 216.447 290.839C217.572 290.94 218.604 290.719 219.543 290.177ZM213.421 287.928C213.12 287.754 212.969 287.539 212.969 287.285C212.969 287.031 213.12 286.817 213.421 286.643C213.723 286.468 214.094 286.381 214.534 286.381C214.975 286.381 215.346 286.468 215.647 286.643C215.949 286.817 216.099 287.031 216.099 287.285C216.099 287.539 215.949 287.754 215.647 287.928C215.346 288.102 214.975 288.189 214.534 288.189C214.094 288.189 213.723 288.102 213.421 287.928ZM234.052 281.479L235.408 282.262L227.165 287.021L225.078 285.816C224.522 285.495 224.133 285.164 223.913 284.822C223.681 284.474 223.588 284.119 223.635 283.758C223.681 283.383 223.849 282.998 224.139 282.603C224.429 282.208 224.812 281.793 225.287 281.358C226.087 280.629 226.498 280.009 226.522 279.501C226.556 278.985 226.261 278.547 225.635 278.185L225.53 278.125C225.217 277.944 224.858 277.797 224.452 277.683C224.046 277.57 223.612 277.506 223.148 277.493C222.684 277.479 222.209 277.533 221.722 277.653C221.235 277.76 220.754 277.951 220.278 278.226C219.386 278.741 218.963 279.3 219.009 279.902C219.067 280.498 219.548 281.057 220.452 281.579L221.218 282.021L219.757 282.864L218.887 282.362C218.331 282.041 217.89 281.679 217.565 281.278C217.241 280.876 217.061 280.458 217.026 280.023C216.992 279.588 217.125 279.149 217.426 278.707C217.728 278.266 218.226 277.844 218.922 277.442C219.629 277.034 220.354 276.743 221.096 276.569C221.826 276.388 222.545 276.301 223.252 276.308C223.948 276.308 224.603 276.391 225.217 276.559C225.832 276.713 226.371 276.924 226.835 277.191L227.148 277.372C228.075 277.908 228.58 278.533 228.661 279.25C228.73 279.959 228.267 280.762 227.269 281.659C226.4 282.443 225.907 283.102 225.791 283.637C225.664 284.166 225.983 284.651 226.748 285.093L227.269 285.394L234.052 281.479ZM229.536 271.596L232.37 269.959L240.892 274.879L242.77 273.795L244.126 274.578L242.248 275.662L244.544 276.987L243.083 277.831L240.787 276.506L235.153 279.759L233.135 278.594L229.536 271.596ZM234.84 278.132L235.048 278.253L239.431 275.722L231.535 271.164L231.327 271.284L234.84 278.132ZM251.493 264.381C249.916 263.47 249.07 262.546 248.954 261.609C248.838 260.672 249.453 259.815 250.798 259.039C252.142 258.263 253.626 257.908 255.25 257.975C256.873 258.042 258.473 258.53 260.049 259.441L262.762 261.007C264.385 261.944 265.243 262.874 265.336 263.798C265.429 264.722 264.803 265.572 263.458 266.348C262.113 267.125 260.641 267.486 259.041 267.433C257.441 267.379 255.829 266.884 254.206 265.947L251.493 264.381ZM262.136 265.585C263.075 265.043 263.452 264.451 263.267 263.808C263.081 263.152 262.391 262.48 261.197 261.79L258.693 260.344C258.136 260.023 257.574 259.765 257.006 259.571C256.426 259.37 255.852 259.247 255.284 259.2C254.716 259.139 254.16 259.159 253.615 259.26C253.081 259.354 252.583 259.534 252.119 259.802C251.644 260.077 251.325 260.368 251.163 260.676C251 260.984 250.966 261.305 251.058 261.639C251.151 261.961 251.371 262.289 251.719 262.623C252.055 262.951 252.502 263.276 253.058 263.597L255.563 265.043C256.757 265.733 257.916 266.134 259.041 266.248C260.165 266.348 261.197 266.128 262.136 265.585ZM256.015 263.336C255.713 263.162 255.563 262.948 255.563 262.694C255.563 262.439 255.713 262.225 256.015 262.051C256.316 261.877 256.687 261.79 257.128 261.79C257.568 261.79 257.939 261.877 258.241 262.051C258.542 262.225 258.693 262.439 258.693 262.694C258.693 262.948 258.542 263.162 258.241 263.336C257.939 263.51 257.568 263.597 257.128 263.597C256.687 263.597 256.316 263.51 256.015 263.336ZM257.62 255.381L265.759 250.682L267.88 251.907L270.506 259.347C270.634 259.702 270.767 259.993 270.906 260.221C271.046 260.448 271.254 260.642 271.532 260.803L272.054 261.104L270.628 261.928L270.002 261.566C269.793 261.446 269.614 261.322 269.463 261.195C269.324 261.061 269.202 260.917 269.098 260.763C268.993 260.596 268.901 260.415 268.82 260.221C268.738 260.013 268.651 259.776 268.559 259.508L266.072 252.309L265.863 252.188L258.976 256.164L257.62 255.381ZM284.598 254.143C283.984 254.498 283.346 254.772 282.685 254.966C282.013 255.154 281.352 255.268 280.703 255.308C280.042 255.341 279.416 255.301 278.824 255.187C278.233 255.06 277.7 254.859 277.225 254.585L277.016 254.464C276.598 254.223 276.291 253.972 276.094 253.711C275.897 253.45 275.781 253.189 275.746 252.928C275.712 252.667 275.746 252.413 275.851 252.165C275.967 251.911 276.129 251.677 276.338 251.462L276.129 251.342C275.781 251.449 275.41 251.523 275.016 251.563C274.622 251.603 274.222 251.613 273.816 251.593C273.422 251.566 273.033 251.503 272.651 251.402C272.257 251.295 271.891 251.144 271.555 250.95L271.346 250.83C270.883 250.562 270.552 250.264 270.355 249.936C270.147 249.602 270.071 249.257 270.129 248.902C270.199 248.541 270.39 248.182 270.703 247.828C271.016 247.46 271.462 247.108 272.042 246.773L272.146 246.713C272.715 246.385 273.317 246.131 273.955 245.95C274.581 245.763 275.201 245.652 275.816 245.619C276.442 245.579 277.045 245.619 277.625 245.739C278.193 245.853 278.709 246.044 279.172 246.312L279.381 246.432C279.717 246.626 279.978 246.837 280.164 247.065C280.337 247.285 280.442 247.513 280.477 247.747C280.523 247.975 280.506 248.206 280.424 248.44C280.355 248.668 280.233 248.879 280.059 249.073L280.268 249.193C280.639 249.073 281.039 248.982 281.468 248.922C281.908 248.855 282.355 248.832 282.807 248.852C283.259 248.872 283.711 248.939 284.163 249.053C284.616 249.166 285.05 249.344 285.468 249.585L285.676 249.705C286.152 249.98 286.494 250.291 286.702 250.639C286.911 250.974 286.986 251.332 286.929 251.713C286.859 252.088 286.662 252.47 286.337 252.858C286.001 253.24 285.526 253.608 284.911 253.962L284.598 254.143ZM283.537 253.229C284.326 252.774 284.76 252.289 284.842 251.774C284.934 251.251 284.656 250.803 284.007 250.428L283.903 250.368C283.184 249.953 282.372 249.779 281.468 249.846C280.575 249.906 279.729 250.167 278.929 250.629L278.824 250.689C278.024 251.151 277.567 251.643 277.451 252.165C277.346 252.681 277.653 253.146 278.372 253.561L278.477 253.621C279.126 253.996 279.897 254.16 280.79 254.113C281.694 254.059 282.54 253.805 283.329 253.35L283.537 253.229ZM277.52 249.876C278.251 249.454 278.651 249.002 278.72 248.52C278.79 248.039 278.535 247.63 277.955 247.296L277.851 247.235C277.259 246.894 276.558 246.75 275.746 246.804C274.935 246.844 274.158 247.078 273.416 247.506C272.674 247.935 272.262 248.387 272.181 248.862C272.1 249.324 272.355 249.725 272.946 250.067L273.051 250.127C273.63 250.462 274.338 250.609 275.172 250.569C276.007 250.529 276.79 250.298 277.52 249.876ZM282.777 240.857L285.612 239.22L294.134 244.14L296.012 243.055L297.368 243.839L295.49 244.923L297.786 246.248L296.325 247.092L294.029 245.766L288.395 249.019L286.377 247.855L282.777 240.857ZM288.082 247.393L288.29 247.513L292.673 244.983L284.777 240.425L284.569 240.545L288.082 247.393ZM310.352 234.896C311.106 235.331 311.946 235.549 312.874 235.549C313.79 235.542 314.659 235.301 315.482 234.826C315.877 234.599 316.166 234.351 316.352 234.083C316.549 233.809 316.636 233.531 316.613 233.25C316.59 232.955 316.468 232.671 316.248 232.396C316.027 232.108 315.697 231.837 315.256 231.583L313.448 230.539L313.239 230.659C313.483 231.108 313.5 231.56 313.291 232.015C313.083 232.47 312.648 232.888 311.987 233.27C311.419 233.598 310.81 233.849 310.161 234.023C309.512 234.197 308.845 234.287 308.161 234.294C307.465 234.294 306.776 234.21 306.092 234.043C305.419 233.869 304.77 233.601 304.144 233.24L303.935 233.119C303.332 232.771 302.886 232.393 302.596 231.985C302.295 231.57 302.15 231.151 302.161 230.73C302.173 230.294 302.335 229.873 302.648 229.464C302.961 229.043 303.425 228.655 304.039 228.3C304.654 227.945 305.321 227.681 306.039 227.507C306.758 227.319 307.483 227.222 308.213 227.215C308.955 227.202 309.68 227.279 310.387 227.446C311.094 227.614 311.743 227.868 312.335 228.209L316.717 230.74C317.366 231.114 317.842 231.516 318.143 231.944C318.445 232.359 318.59 232.785 318.578 233.22C318.566 233.641 318.404 234.056 318.091 234.465C317.778 234.873 317.326 235.248 316.735 235.589C316.143 235.931 315.511 236.195 314.839 236.382C314.167 236.57 313.488 236.674 312.804 236.694C312.109 236.707 311.43 236.637 310.77 236.483C310.097 236.322 309.471 236.074 308.891 235.74L310.352 234.896ZM305.326 229.043C304.909 229.284 304.596 229.545 304.387 229.826C304.19 230.1 304.097 230.382 304.109 230.669C304.121 230.957 304.237 231.238 304.457 231.513C304.665 231.78 304.967 232.028 305.361 232.256L305.57 232.376C305.976 232.611 306.416 232.785 306.891 232.898C307.355 233.005 307.831 233.059 308.318 233.059C308.793 233.052 309.262 232.989 309.726 232.868C310.19 232.748 310.625 232.57 311.03 232.336C311.425 232.108 311.726 231.861 311.935 231.593C312.132 231.319 312.236 231.044 312.248 230.77C312.271 230.489 312.19 230.214 312.004 229.946C311.819 229.679 311.541 229.438 311.17 229.224L310.839 229.033C310.457 228.812 310.033 228.641 309.57 228.521C309.106 228.4 308.631 228.34 308.144 228.34C307.645 228.333 307.152 228.39 306.665 228.511C306.19 228.624 305.744 228.802 305.326 229.043ZM317.401 228.297L310.966 224.582L318.583 220.184L319.94 220.967L313.749 224.542L318.096 227.052L318.305 226.931C318.189 226.73 318.12 226.516 318.096 226.289C318.062 226.054 318.085 225.82 318.166 225.586C318.259 225.345 318.415 225.107 318.635 224.873C318.844 224.632 319.14 224.401 319.522 224.18C320.079 223.859 320.682 223.618 321.331 223.457C321.992 223.29 322.659 223.206 323.331 223.206C324.003 223.206 324.67 223.29 325.331 223.457C326.003 223.618 326.629 223.866 327.209 224.2L327.522 224.381C328.102 224.716 328.56 225.087 328.896 225.495C329.221 225.897 329.406 226.319 329.452 226.761C329.487 227.196 329.354 227.634 329.052 228.076C328.751 228.518 328.253 228.939 327.557 229.341C326.85 229.749 326.119 230.05 325.366 230.245C324.612 230.439 323.864 230.536 323.122 230.536C322.38 230.536 321.661 230.449 320.966 230.275C320.27 230.087 319.627 229.823 319.035 229.481L318.549 229.2L320.009 228.357L320.392 228.578C321.354 229.133 322.345 229.398 323.366 229.371C324.386 229.331 325.331 229.06 326.2 228.558C326.664 228.29 326.989 228.009 327.174 227.714C327.36 227.406 327.429 227.105 327.383 226.811C327.337 226.503 327.186 226.208 326.931 225.927C326.664 225.639 326.328 225.378 325.922 225.144L325.818 225.084C325.458 224.876 325.058 224.719 324.618 224.612C324.189 224.498 323.748 224.438 323.296 224.431C322.856 224.418 322.415 224.465 321.974 224.572C321.534 224.665 321.134 224.816 320.775 225.024C320.531 225.164 320.34 225.315 320.201 225.475C320.073 225.629 319.992 225.783 319.957 225.937C319.911 226.084 319.905 226.228 319.94 226.369C319.986 226.503 320.056 226.617 320.148 226.71L317.401 228.297ZM325.371 216.265L328.206 214.629L336.727 219.548L338.605 218.464L339.962 219.247L338.084 220.332L340.379 221.657L338.918 222.5L336.623 221.175L330.988 224.428L328.971 223.263L325.371 216.265ZM330.675 222.802L330.884 222.922L335.266 220.392L327.371 215.833L327.162 215.954L330.675 222.802ZM332.159 212.346L340.297 207.647L342.419 208.872L345.045 216.312C345.173 216.667 345.306 216.958 345.445 217.186C345.584 217.413 345.793 217.608 346.071 217.768L346.593 218.069L345.167 218.893L344.541 218.531C344.332 218.411 344.152 218.287 344.002 218.16C343.863 218.026 343.741 217.882 343.636 217.728C343.532 217.561 343.439 217.38 343.358 217.186C343.277 216.978 343.19 216.741 343.097 216.473L340.61 209.274L340.402 209.153L333.515 213.129L332.159 212.346ZM372.481 201.557L373.837 202.34L365.594 207.099L363.507 205.894C362.951 205.573 362.562 205.242 362.342 204.9C362.11 204.552 362.017 204.197 362.064 203.836C362.11 203.461 362.278 203.076 362.568 202.681C362.858 202.286 363.241 201.871 363.716 201.436C364.516 200.707 364.927 200.087 364.951 199.579C364.985 199.063 364.69 198.625 364.064 198.263L363.959 198.203C363.646 198.022 363.287 197.875 362.881 197.761C362.475 197.648 362.041 197.584 361.577 197.571C361.113 197.557 360.638 197.611 360.151 197.731C359.664 197.838 359.183 198.029 358.707 198.304C357.815 198.819 357.391 199.378 357.438 199.98C357.496 200.576 357.977 201.135 358.881 201.657L359.646 202.099L358.186 202.942L357.316 202.44C356.76 202.119 356.319 201.757 355.994 201.356C355.67 200.954 355.49 200.536 355.455 200.101C355.421 199.666 355.554 199.227 355.855 198.785C356.157 198.344 356.655 197.922 357.351 197.52C358.058 197.112 358.783 196.821 359.525 196.647C360.255 196.466 360.974 196.379 361.681 196.386C362.377 196.386 363.032 196.469 363.646 196.637C364.261 196.791 364.8 197.002 365.264 197.269L365.577 197.45C366.504 197.986 367.008 198.611 367.09 199.328C367.159 200.037 366.695 200.84 365.698 201.737C364.829 202.521 364.336 203.18 364.22 203.715C364.093 204.244 364.411 204.729 365.177 205.171L365.698 205.472L372.481 201.557ZM367.964 191.674L370.799 190.037L379.321 194.957L381.199 193.873L382.555 194.656L380.677 195.74L382.973 197.066L381.512 197.909L379.216 196.584L373.582 199.837L371.564 198.672L367.964 191.674ZM373.269 198.21L373.477 198.331L377.86 195.8L369.964 191.242L369.756 191.363L373.269 198.21ZM384.926 185.978C384.172 185.543 383.337 185.328 382.421 185.335C381.494 185.335 380.619 185.573 379.795 186.048C379.401 186.276 379.106 186.527 378.908 186.801C378.723 187.069 378.642 187.35 378.665 187.644C378.688 187.926 378.81 188.21 379.03 188.498C379.262 188.779 379.593 189.043 380.021 189.291L381.83 190.335L382.039 190.215C381.807 189.76 381.801 189.301 382.021 188.839C382.253 188.371 382.688 187.952 383.326 187.584C383.882 187.263 384.491 187.019 385.152 186.851C385.801 186.677 386.468 186.594 387.152 186.6C387.847 186.6 388.537 186.691 389.221 186.871C389.905 187.039 390.56 187.303 391.186 187.665L391.395 187.785C391.998 188.133 392.438 188.515 392.717 188.93C393.007 189.338 393.14 189.756 393.117 190.185C393.105 190.606 392.937 191.025 392.612 191.44C392.299 191.848 391.841 192.226 391.238 192.574C390.636 192.922 389.975 193.19 389.256 193.378C388.549 193.558 387.83 193.659 387.099 193.679C386.369 193.686 385.65 193.612 384.943 193.458C384.236 193.291 383.587 193.036 382.995 192.695L378.561 190.135C377.923 189.766 377.453 189.368 377.152 188.94C376.851 188.511 376.711 188.083 376.735 187.655C376.746 187.219 376.903 186.801 377.204 186.399C377.517 185.991 377.964 185.62 378.543 185.285C379.123 184.95 379.749 184.689 380.421 184.502C381.094 184.314 381.778 184.214 382.474 184.201C383.158 184.18 383.836 184.251 384.508 184.411C385.181 184.559 385.807 184.8 386.386 185.134L384.926 185.978ZM389.952 191.831C390.369 191.59 390.682 191.336 390.891 191.068C391.099 190.787 391.204 190.506 391.204 190.225C391.204 189.944 391.099 189.669 390.891 189.402C390.682 189.134 390.375 188.883 389.969 188.649L389.76 188.528C389.354 188.294 388.914 188.12 388.439 188.006C387.963 187.892 387.482 187.835 386.995 187.835C386.508 187.835 386.027 187.899 385.552 188.026C385.076 188.14 384.642 188.31 384.247 188.538C383.853 188.766 383.558 189.017 383.36 189.291C383.163 189.566 383.059 189.847 383.047 190.135C383.047 190.416 383.14 190.69 383.326 190.958C383.511 191.226 383.789 191.467 384.16 191.681L384.491 191.872C384.873 192.092 385.297 192.263 385.76 192.384C386.213 192.497 386.682 192.554 387.169 192.554C387.656 192.554 388.137 192.497 388.612 192.384C389.088 192.256 389.534 192.072 389.952 191.831ZM401.73 186.517C401.116 186.872 400.478 187.146 399.817 187.34C399.145 187.528 398.484 187.641 397.835 187.682C397.174 187.715 396.548 187.675 395.957 187.561C395.365 187.434 394.832 187.233 394.357 186.959L394.148 186.838C393.731 186.597 393.423 186.346 393.226 186.085C393.029 185.824 392.913 185.563 392.878 185.302C392.844 185.041 392.878 184.787 392.983 184.539C393.099 184.285 393.261 184.05 393.47 183.836L393.261 183.716C392.913 183.823 392.542 183.896 392.148 183.936C391.754 183.977 391.354 183.987 390.948 183.967C390.554 183.94 390.166 183.876 389.783 183.776C389.389 183.669 389.024 183.518 388.687 183.324L388.479 183.204C388.015 182.936 387.684 182.638 387.487 182.31C387.279 181.975 387.203 181.63 387.261 181.276C387.331 180.914 387.522 180.556 387.835 180.201C388.148 179.833 388.595 179.482 389.174 179.147L389.279 179.087C389.847 178.759 390.45 178.505 391.087 178.324C391.713 178.136 392.334 178.026 392.948 177.992C393.574 177.952 394.177 177.992 394.757 178.113C395.325 178.227 395.841 178.418 396.304 178.685L396.513 178.806C396.849 179 397.11 179.211 397.296 179.438C397.47 179.659 397.574 179.887 397.609 180.121C397.655 180.349 397.638 180.58 397.557 180.814C397.487 181.041 397.365 181.252 397.191 181.446L397.4 181.567C397.771 181.446 398.171 181.356 398.6 181.296C399.041 181.229 399.487 181.205 399.939 181.226C400.391 181.246 400.843 181.313 401.296 181.426C401.748 181.54 402.182 181.718 402.6 181.958L402.809 182.079C403.284 182.353 403.626 182.665 403.835 183.013C404.043 183.347 404.119 183.706 404.061 184.087C403.991 184.462 403.794 184.843 403.469 185.232C403.133 185.613 402.658 185.981 402.043 186.336L401.73 186.517ZM400.669 185.603C401.458 185.148 401.893 184.663 401.974 184.147C402.067 183.625 401.788 183.177 401.139 182.802L401.035 182.742C400.316 182.327 399.504 182.153 398.6 182.22C397.707 182.28 396.861 182.541 396.061 183.003L395.957 183.063C395.157 183.525 394.699 184.017 394.583 184.539C394.478 185.054 394.786 185.52 395.504 185.935L395.609 185.995C396.258 186.37 397.029 186.534 397.922 186.487C398.826 186.433 399.672 186.179 400.461 185.724L400.669 185.603ZM394.652 182.25C395.383 181.828 395.783 181.376 395.852 180.894C395.922 180.412 395.667 180.004 395.087 179.669L394.983 179.609C394.391 179.268 393.69 179.124 392.878 179.177C392.067 179.217 391.29 179.452 390.548 179.88C389.806 180.309 389.395 180.76 389.313 181.236C389.232 181.697 389.487 182.099 390.079 182.44L390.183 182.501C390.763 182.835 391.47 182.983 392.305 182.942C393.139 182.902 393.922 182.671 394.652 182.25Z" fill="white"/>
<path d="M234.657 311.979C233.404 312.702 232.065 313.08 230.639 313.114C229.225 313.141 227.903 312.799 226.674 312.09L225.526 311.427L227.822 310.102L228.97 310.764C229.515 311.079 230.094 311.24 230.709 311.246C231.312 311.246 231.886 311.089 232.43 310.774C232.941 310.48 233.184 310.165 233.161 309.831C233.149 309.489 232.865 309.158 232.309 308.837L225.874 305.122L223.787 306.326L221.7 305.122L227.474 301.788L229.561 302.993L228.17 303.796L234.604 307.511C235.868 308.241 236.494 308.997 236.483 309.78C236.459 310.557 235.851 311.29 234.657 311.979ZM243.929 306.626C243.314 306.981 242.659 307.238 241.964 307.399C241.256 307.553 240.555 307.597 239.859 307.53C239.164 307.449 238.52 307.238 237.929 306.897C237.338 306.556 236.984 306.191 236.868 305.803C236.752 305.401 236.845 304.999 237.146 304.598C237.448 304.183 237.923 303.788 238.572 303.413L240.938 302.048L240.451 301.766C240.045 301.532 239.587 301.415 239.077 301.415C238.555 301.408 238.016 301.566 237.459 301.887C236.914 302.201 236.636 302.509 236.625 302.811C236.601 303.105 236.746 303.39 237.059 303.664L234.364 304.437C234.062 304.102 233.883 303.744 233.825 303.363C233.767 302.968 233.883 302.56 234.173 302.138C234.462 301.703 234.978 301.271 235.72 300.843C236.857 300.187 238.039 299.832 239.268 299.778C240.497 299.725 241.651 300.009 242.729 300.632L245.946 302.489C246.294 302.69 246.63 302.697 246.955 302.509L247.65 302.108L249.459 303.152L247.998 303.995C247.569 304.243 247.111 304.387 246.624 304.427C246.137 304.467 245.72 304.387 245.372 304.186L245.355 304.176L245.024 304.367C245.117 304.474 245.198 304.641 245.268 304.869C245.326 305.09 245.268 305.351 245.094 305.652C244.92 305.953 244.532 306.278 243.929 306.626ZM242.537 305.381C243.152 305.026 243.482 304.641 243.529 304.226C243.575 303.798 243.314 303.42 242.746 303.092L242.572 302.991L240.364 304.266C239.958 304.501 239.726 304.735 239.668 304.969C239.61 305.204 239.738 305.411 240.051 305.592C240.364 305.773 240.74 305.85 241.181 305.823C241.622 305.796 242.074 305.649 242.537 305.381ZM251.061 302.227L242.435 297.247L244.592 296.002L245.722 296.655L246.035 296.474C245.873 296.219 245.85 295.905 245.966 295.53C246.07 295.148 246.51 294.733 247.287 294.285C247.96 293.897 248.702 293.649 249.513 293.542C250.325 293.421 251.142 293.438 251.965 293.592C252.777 293.739 253.542 294.021 254.261 294.436L259.409 297.408L257.217 298.673L252.244 295.801C251.594 295.426 250.945 295.239 250.296 295.239C249.658 295.232 249.044 295.399 248.452 295.741C247.78 296.129 247.484 296.561 247.566 297.036C247.635 297.505 248.07 297.97 248.87 298.432L253.252 300.962L251.061 302.227ZM265.951 293.911C265.093 294.407 264.154 294.741 263.134 294.915C262.114 295.076 261.088 295.073 260.056 294.905C259.024 294.725 258.056 294.373 257.151 293.851L256.943 293.731C256.038 293.208 255.436 292.653 255.134 292.064C254.821 291.468 254.81 290.879 255.099 290.297C255.378 289.708 255.946 289.166 256.804 288.67C257.65 288.182 258.577 287.867 259.586 287.726C260.583 287.579 261.592 287.599 262.612 287.787C263.621 287.967 264.566 288.312 265.447 288.821L266.195 289.253L259.917 292.877C260.531 293.205 261.232 293.356 262.021 293.329C262.809 293.302 263.505 293.115 264.108 292.767C264.722 292.412 265.041 292.074 265.064 291.753C265.087 291.431 265.012 291.133 264.838 290.859L267.568 290.367C267.708 290.635 267.8 290.963 267.847 291.351C267.893 291.726 267.789 292.134 267.534 292.576C267.267 293.011 266.739 293.456 265.951 293.911ZM258.299 291.923L262.334 289.594C261.789 289.333 261.186 289.219 260.525 289.253C259.876 289.279 259.267 289.457 258.699 289.785C258.108 290.126 257.789 290.484 257.743 290.859C257.696 291.234 257.882 291.589 258.299 291.923ZM281.03 285.206C279.523 286.076 277.911 286.524 276.195 286.551C274.468 286.571 272.821 286.129 271.256 285.226L268.335 283.539C266.769 282.635 266.01 281.688 266.056 280.697C266.091 279.7 266.862 278.766 268.369 277.896C269.865 277.033 271.43 276.604 273.065 276.611C274.7 276.604 276.23 277.013 277.656 277.836L277.76 277.896L275.5 279.201L275.326 279.101C274.607 278.686 273.813 278.462 272.943 278.428C272.085 278.388 271.245 278.606 270.421 279.081C269.61 279.55 269.222 280.062 269.256 280.617C269.291 281.173 269.737 281.698 270.595 282.194L273.587 283.92C274.433 284.409 275.343 284.667 276.317 284.694C277.279 284.714 278.166 284.489 278.978 284.021C279.801 283.546 280.178 283.06 280.108 282.565C280.039 282.056 279.65 281.598 278.943 281.189L278.63 281.009L280.891 279.703L281.134 279.844C282.56 280.667 283.273 281.554 283.273 282.505C283.273 283.442 282.525 284.342 281.03 285.206ZM291.769 279.005C290.912 279.5 289.967 279.845 288.935 280.039C287.903 280.233 286.859 280.253 285.804 280.1C284.749 279.946 283.758 279.601 282.831 279.065L282.552 278.905C281.625 278.369 281.028 277.797 280.761 277.188C280.495 276.579 280.529 275.976 280.866 275.38C281.202 274.785 281.799 274.239 282.657 273.744C283.515 273.249 284.46 272.904 285.491 272.71C286.523 272.516 287.567 272.496 288.622 272.649C289.677 272.803 290.668 273.148 291.596 273.684L291.874 273.844C292.801 274.38 293.398 274.952 293.665 275.561C293.932 276.17 293.897 276.773 293.561 277.369C293.224 277.964 292.627 278.51 291.769 279.005ZM289.822 277.881C290.494 277.492 290.836 277.047 290.848 276.545C290.848 276.036 290.442 275.548 289.63 275.079L289.456 274.979C288.645 274.51 287.804 274.279 286.935 274.286C286.065 274.279 285.289 274.473 284.605 274.868C283.932 275.257 283.596 275.705 283.596 276.214C283.584 276.716 283.984 277.201 284.796 277.67L284.97 277.77C285.781 278.239 286.628 278.473 287.509 278.473C288.378 278.466 289.149 278.269 289.822 277.881ZM302.418 272.857C301.56 273.353 300.615 273.697 299.583 273.891C298.551 274.086 297.508 274.106 296.453 273.952C295.398 273.798 294.407 273.453 293.479 272.918L293.201 272.757C292.273 272.221 291.676 271.649 291.41 271.04C291.143 270.431 291.178 269.828 291.514 269.233C291.85 268.637 292.447 268.091 293.305 267.596C294.163 267.101 295.108 266.756 296.14 266.562C297.172 266.368 298.215 266.348 299.27 266.502C300.325 266.656 301.316 267 302.244 267.536L302.522 267.696C303.45 268.232 304.047 268.804 304.313 269.413C304.58 270.022 304.545 270.625 304.209 271.221C303.873 271.816 303.276 272.362 302.418 272.857ZM300.47 271.733C301.143 271.344 301.485 270.899 301.496 270.397C301.496 269.889 301.09 269.4 300.279 268.931L300.105 268.831C299.293 268.362 298.453 268.132 297.583 268.138C296.714 268.132 295.937 268.326 295.253 268.721C294.58 269.109 294.244 269.557 294.244 270.066C294.233 270.568 294.633 271.053 295.444 271.522L295.618 271.622C296.43 272.091 297.276 272.325 298.157 272.325C299.027 272.318 299.798 272.121 300.47 271.733ZM312.197 270.947L300.093 263.958L302.249 262.713L303.293 263.316L303.606 263.135C303.467 262.827 303.478 262.479 303.64 262.091C303.791 261.696 304.255 261.274 305.032 260.826C305.727 260.424 306.545 260.153 307.484 260.012C308.411 259.865 309.385 259.879 310.405 260.053C311.426 260.227 312.405 260.585 313.344 261.127L313.623 261.288C314.562 261.83 315.182 262.395 315.484 262.984C315.785 263.573 315.814 264.139 315.57 264.681C315.315 265.217 314.84 265.685 314.144 266.087C313.623 266.388 313.118 266.606 312.631 266.74C312.168 266.873 311.733 266.95 311.327 266.97C310.921 266.977 310.556 266.96 310.232 266.92L309.919 267.101L314.388 269.681L312.197 270.947ZM311.571 265.364C312.255 264.969 312.602 264.521 312.614 264.019C312.626 263.503 312.214 263.004 311.379 262.523L311.205 262.422C310.371 261.94 309.513 261.706 308.632 261.719C307.739 261.726 306.956 261.923 306.284 262.312C305.611 262.7 305.269 263.152 305.258 263.667C305.235 264.176 305.64 264.671 306.475 265.153L306.649 265.254C307.484 265.735 308.348 265.973 309.24 265.966C310.121 265.953 310.898 265.752 311.571 265.364ZM323.982 260.407C323.124 260.902 322.185 261.237 321.165 261.411C320.145 261.572 319.119 261.568 318.087 261.401C317.055 261.22 316.087 260.869 315.183 260.347L314.974 260.226C314.07 259.704 313.467 259.149 313.165 258.56C312.852 257.964 312.841 257.375 313.13 256.792C313.409 256.203 313.977 255.661 314.835 255.166C315.681 254.677 316.609 254.363 317.617 254.222C318.614 254.075 319.623 254.095 320.643 254.282C321.652 254.463 322.597 254.808 323.478 255.317L324.226 255.748L317.948 259.373C318.562 259.701 319.264 259.851 320.052 259.825C320.84 259.798 321.536 259.611 322.139 259.262C322.753 258.908 323.072 258.57 323.095 258.248C323.119 257.927 323.043 257.629 322.869 257.355L325.6 256.863C325.739 257.13 325.831 257.458 325.878 257.847C325.924 258.222 325.82 258.63 325.565 259.072C325.298 259.507 324.771 259.952 323.982 260.407ZM316.33 258.419L320.365 256.09C319.82 255.829 319.217 255.715 318.556 255.748C317.907 255.775 317.298 255.952 316.73 256.28C316.139 256.622 315.82 256.98 315.774 257.355C315.727 257.73 315.913 258.084 316.33 258.419ZM329.845 256.741L321.22 251.761L323.376 250.516L324.35 251.078L324.663 250.897C324.443 250.623 324.396 250.355 324.524 250.094C324.663 249.826 324.93 249.579 325.324 249.351L326.367 248.749L328.315 249.873L327.237 250.496C326.68 250.817 326.373 251.168 326.315 251.55C326.246 251.925 326.518 252.289 327.133 252.644L332.037 255.476L329.845 256.741Z" fill="white"/>
</g>
<defs>
<filter id="filter0_d_288_19" x="0.633127" y="0.305002" width="656.436" height="421.428" filterUnits="userSpaceOnUse" color-interpolation-filters="sRGB">
<feFlood flood-opacity="0" result="BackgroundImageFix"/>
<feColorMatrix in="SourceAlpha" type="matrix" values="0 0 0 0 0 0 0 0 0 0 0 0 0 0 0 0 0 0 127 0" result="hardAlpha"/>
<feOffset dx="25.1012" dy="25.1012"/>
<feGaussianBlur stdDeviation="25.1012"/>
<feComposite in2="hardAlpha" operator="out"/>
<feColorMatrix type="matrix" values="0 0 0 0 0 0 0 0 0 0 0 0 0 0 0 0 0 0 0.25 0"/>
<feBlend mode="normal" in2="BackgroundImageFix" result="effect1_dropShadow_288_19"/>
<feBlend mode="normal" in="SourceGraphic" in2="effect1_dropShadow_288_19" result="shape"/>
</filter>
<clipPath id="clip0_288_19">
<rect width="76.7699" height="23.5544" fill="white" transform="matrix(0.914375 -0.470432 0.914375 0.470432 74.5693 223.438)"/>
</clipPath>
</defs>
</svg>
