<svg width="658" height="422" viewBox="0 0 658 422" fill="none" xmlns="http://www.w3.org/2000/svg">
<g filter="url(#filter0_d_288_62)">
<mask id="path-1-inside-1_288_62" fill="white">
<path d="M34.7383 234.5C22.7326 227.568 22.7326 216.33 34.7383 209.399L344.509 30.5522C356.515 23.6207 375.98 23.6207 387.986 30.5522L572.762 137.233C584.767 144.164 584.767 155.402 572.762 162.334L262.991 341.18C250.985 348.112 231.52 348.112 219.514 341.18L34.7383 234.5Z"/>
</mask>
<path d="M34.7383 234.5C22.7326 227.568 22.7326 216.33 34.7383 209.399L344.509 30.5522C356.515 23.6207 375.98 23.6207 387.986 30.5522L572.762 137.233C584.767 144.164 584.767 155.402 572.762 162.334L262.991 341.18C250.985 348.112 231.52 348.112 219.514 341.18L34.7383 234.5Z" fill="#BBADFF"/>
<path d="M32.5645 235.755C20.2586 228.65 20.2586 217.131 32.5645 210.026L343.966 30.2384C356.272 23.1336 376.224 23.1336 388.529 30.2384L387.443 30.866C375.737 24.1077 356.758 24.1077 345.053 30.866L35.2818 209.712C24.4766 215.951 25.2066 226.487 36.9121 233.245L32.5645 235.755ZM574.936 137.86C587.241 144.965 587.241 156.484 574.936 163.589L265.164 342.435C251.958 350.06 230.546 350.06 217.34 342.435L221.688 339.925C232.493 346.163 250.012 346.163 260.817 339.925L570.588 161.079C582.293 154.32 583.023 143.785 572.218 137.546L574.936 137.86ZM265.164 342.435C251.958 350.06 230.546 350.06 217.34 342.435L32.5645 235.755C20.2586 228.65 20.2586 217.131 32.5645 210.026L35.2818 209.712C24.4766 215.951 25.2066 226.487 36.9121 233.245L221.688 339.925C232.493 346.163 250.012 346.163 260.817 339.925L265.164 342.435ZM343.966 30.2384C356.272 23.1336 376.224 23.1336 388.529 30.2384L574.936 137.86C587.241 144.965 587.241 156.484 574.936 163.589L570.588 161.079C582.293 154.32 583.023 143.785 572.218 137.546L387.443 30.866C375.737 24.1077 356.758 24.1077 345.053 30.866L343.966 30.2384Z" fill="white" fill-opacity="0.5" mask="url(#path-1-inside-1_288_62)"/>
</g>
<path d="M211.486 298.68L201.313 292.806L201.104 292.927L203.678 296.722L202.234 297.555L202.13 297.495L199.295 293.228L202.13 291.591L212.947 297.837L216.39 295.849L217.747 296.632L209.399 301.451L208.043 300.668L211.486 298.68ZM226.917 289.771L228.274 290.554L220.03 295.313L217.944 294.109C217.387 293.787 216.999 293.456 216.778 293.115C216.546 292.766 216.454 292.412 216.5 292.05C216.546 291.675 216.715 291.29 217.004 290.896C217.294 290.501 217.677 290.086 218.152 289.651C218.952 288.921 219.364 288.302 219.387 287.793C219.422 287.278 219.126 286.839 218.5 286.478L218.396 286.418C218.083 286.237 217.723 286.09 217.317 285.976C216.912 285.862 216.477 285.798 216.013 285.785C215.549 285.772 215.074 285.825 214.587 285.946C214.1 286.053 213.619 286.243 213.144 286.518C212.251 287.033 211.828 287.592 211.874 288.195C211.932 288.79 212.413 289.349 213.318 289.871L214.083 290.313L212.622 291.157L211.752 290.655C211.196 290.333 210.755 289.972 210.431 289.57C210.106 289.169 209.926 288.75 209.892 288.315C209.857 287.88 209.99 287.442 210.292 287C210.593 286.558 211.092 286.136 211.787 285.735C212.494 285.326 213.219 285.035 213.961 284.861C214.691 284.68 215.41 284.593 216.118 284.6C216.813 284.6 217.468 284.684 218.083 284.851C218.697 285.005 219.236 285.216 219.7 285.484L220.013 285.664C220.941 286.2 221.445 286.826 221.526 287.542C221.596 288.252 221.132 289.055 220.135 289.952C219.265 290.735 218.772 291.394 218.657 291.93C218.529 292.459 218.848 292.944 219.613 293.386L220.135 293.687L226.917 289.771ZM223.062 284.969C221.485 284.058 220.639 283.135 220.523 282.197C220.407 281.26 221.021 280.404 222.366 279.627C223.711 278.851 225.195 278.496 226.818 278.563C228.441 278.63 230.041 279.118 231.618 280.029L234.331 281.595C235.954 282.532 236.812 283.463 236.905 284.386C236.997 285.31 236.371 286.16 235.026 286.937C233.682 287.713 232.209 288.074 230.609 288.021C229.009 287.967 227.398 287.472 225.775 286.535L223.062 284.969ZM233.705 286.173C234.644 285.631 235.021 285.039 234.835 284.396C234.65 283.74 233.96 283.068 232.766 282.378L230.261 280.932C229.705 280.611 229.143 280.353 228.575 280.159C227.995 279.958 227.421 279.835 226.853 279.788C226.285 279.727 225.728 279.748 225.183 279.848C224.65 279.942 224.151 280.122 223.688 280.39C223.212 280.665 222.894 280.956 222.731 281.264C222.569 281.572 222.534 281.893 222.627 282.228C222.72 282.549 222.94 282.877 223.288 283.212C223.624 283.54 224.07 283.864 224.627 284.185L227.131 285.631C228.325 286.321 229.485 286.722 230.609 286.836C231.734 286.937 232.766 286.716 233.705 286.173ZM227.583 283.924C227.282 283.75 227.131 283.536 227.131 283.282C227.131 283.027 227.282 282.813 227.583 282.639C227.885 282.465 228.256 282.378 228.696 282.378C229.137 282.378 229.508 282.465 229.809 282.639C230.111 282.813 230.261 283.027 230.261 283.282C230.261 283.536 230.111 283.75 229.809 283.924C229.508 284.098 229.137 284.185 228.696 284.185C228.256 284.185 227.885 284.098 227.583 283.924ZM235.727 279.624L229.293 275.909L236.91 271.511L238.266 272.294L232.075 275.869L236.423 278.379L236.632 278.258C236.516 278.058 236.446 277.843 236.423 277.616C236.388 277.382 236.411 277.147 236.493 276.913C236.585 276.672 236.742 276.434 236.962 276.2C237.171 275.959 237.466 275.728 237.849 275.507C238.406 275.186 239.008 274.945 239.658 274.784C240.319 274.617 240.985 274.533 241.658 274.533C242.33 274.533 242.997 274.617 243.658 274.784C244.33 274.945 244.956 275.193 245.536 275.527L245.849 275.708C246.428 276.043 246.886 276.414 247.223 276.823C247.547 277.224 247.733 277.646 247.779 278.088C247.814 278.523 247.681 278.961 247.379 279.403C247.078 279.845 246.579 280.267 245.884 280.668C245.176 281.077 244.446 281.378 243.692 281.572C242.939 281.766 242.191 281.863 241.449 281.863C240.707 281.863 239.988 281.776 239.292 281.602C238.597 281.415 237.953 281.15 237.362 280.809L236.875 280.528L238.336 279.684L238.719 279.905C239.681 280.461 240.672 280.725 241.692 280.698C242.713 280.658 243.658 280.387 244.527 279.885C244.991 279.617 245.315 279.336 245.501 279.042C245.686 278.734 245.756 278.433 245.71 278.138C245.663 277.83 245.513 277.536 245.257 277.254C244.991 276.967 244.655 276.706 244.249 276.471L244.144 276.411C243.785 276.204 243.385 276.046 242.944 275.939C242.516 275.825 242.075 275.765 241.623 275.758C241.182 275.745 240.742 275.792 240.301 275.899C239.861 275.993 239.461 276.143 239.101 276.351C238.858 276.491 238.666 276.642 238.527 276.803C238.4 276.957 238.319 277.111 238.284 277.264C238.237 277.412 238.232 277.556 238.266 277.696C238.313 277.83 238.382 277.944 238.475 278.038L235.727 279.624ZM266.815 268.583C266.201 268.938 265.563 269.213 264.902 269.407C264.23 269.594 263.569 269.708 262.92 269.748C262.259 269.782 261.633 269.741 261.041 269.628C260.45 269.5 259.917 269.3 259.441 269.025L259.233 268.905C258.815 268.664 258.508 268.413 258.311 268.152C258.114 267.891 257.998 267.63 257.963 267.368C257.928 267.107 257.963 266.853 258.068 266.605C258.184 266.351 258.346 266.117 258.555 265.903L258.346 265.782C257.998 265.889 257.627 265.963 257.233 266.003C256.839 266.043 256.439 266.053 256.033 266.033C255.639 266.006 255.25 265.943 254.868 265.842C254.473 265.735 254.108 265.585 253.772 265.391L253.563 265.27C253.1 265.002 252.769 264.704 252.572 264.376C252.363 264.042 252.288 263.697 252.346 263.342C252.416 262.981 252.607 262.623 252.92 262.268C253.233 261.9 253.679 261.548 254.259 261.214L254.363 261.153C254.931 260.825 255.534 260.571 256.172 260.39C256.798 260.203 257.418 260.092 258.033 260.059C258.659 260.019 259.262 260.059 259.841 260.179C260.41 260.293 260.925 260.484 261.389 260.752L261.598 260.872C261.934 261.066 262.195 261.277 262.38 261.505C262.554 261.726 262.659 261.953 262.693 262.188C262.74 262.415 262.722 262.646 262.641 262.88C262.572 263.108 262.45 263.319 262.276 263.513L262.485 263.633C262.856 263.513 263.256 263.423 263.685 263.362C264.125 263.295 264.572 263.272 265.024 263.292C265.476 263.312 265.928 263.379 266.38 263.493C266.832 263.607 267.267 263.784 267.685 264.025L267.893 264.145C268.369 264.42 268.711 264.731 268.919 265.079C269.128 265.414 269.203 265.772 269.145 266.154C269.076 266.528 268.879 266.91 268.554 267.298C268.218 267.68 267.743 268.048 267.128 268.403L266.815 268.583ZM265.754 267.67C266.543 267.215 266.977 266.729 267.059 266.214C267.151 265.692 266.873 265.243 266.224 264.868L266.119 264.808C265.401 264.393 264.589 264.219 263.685 264.286C262.792 264.346 261.946 264.607 261.146 265.069L261.041 265.129C260.241 265.591 259.783 266.083 259.668 266.605C259.563 267.121 259.87 267.586 260.589 268.001L260.694 268.061C261.343 268.436 262.114 268.6 263.007 268.553C263.911 268.5 264.757 268.245 265.546 267.79L265.754 267.67ZM259.737 264.316C260.467 263.894 260.867 263.443 260.937 262.961C261.007 262.479 260.752 262.07 260.172 261.736L260.067 261.676C259.476 261.334 258.775 261.19 257.963 261.244C257.152 261.284 256.375 261.518 255.633 261.947C254.891 262.375 254.479 262.827 254.398 263.302C254.317 263.764 254.572 264.166 255.163 264.507L255.268 264.567C255.847 264.902 256.555 265.049 257.389 265.009C258.224 264.969 259.007 264.738 259.737 264.316ZM271.307 255.749C270.554 255.313 269.719 255.099 268.803 255.106C267.875 255.106 267 255.344 266.177 255.819C265.783 256.046 265.487 256.297 265.29 256.572C265.104 256.84 265.023 257.121 265.047 257.415C265.07 257.696 265.191 257.981 265.412 258.269C265.644 258.55 265.974 258.814 266.403 259.062L268.212 260.106L268.42 259.986C268.188 259.53 268.183 259.072 268.403 258.61C268.635 258.142 269.07 257.723 269.707 257.355C270.264 257.034 270.872 256.789 271.533 256.622C272.182 256.448 272.849 256.364 273.533 256.371C274.229 256.371 274.919 256.461 275.603 256.642C276.287 256.81 276.942 257.074 277.568 257.435L277.776 257.556C278.379 257.904 278.82 258.285 279.098 258.7C279.388 259.109 279.521 259.527 279.498 259.956C279.487 260.377 279.318 260.796 278.994 261.211C278.681 261.619 278.223 261.997 277.62 262.345C277.017 262.693 276.356 262.961 275.637 263.148C274.93 263.329 274.211 263.43 273.481 263.45C272.751 263.456 272.032 263.383 271.325 263.229C270.617 263.061 269.968 262.807 269.377 262.466L264.942 259.905C264.305 259.537 263.835 259.139 263.534 258.711C263.232 258.282 263.093 257.854 263.116 257.425C263.128 256.99 263.284 256.572 263.586 256.17C263.899 255.762 264.345 255.39 264.925 255.056C265.504 254.721 266.131 254.46 266.803 254.273C267.475 254.085 268.159 253.985 268.855 253.971C269.539 253.951 270.217 254.022 270.89 254.182C271.562 254.33 272.188 254.57 272.768 254.905L271.307 255.749ZM276.333 261.602C276.75 261.361 277.063 261.107 277.272 260.839C277.481 260.558 277.585 260.277 277.585 259.996C277.585 259.715 277.481 259.44 277.272 259.172C277.063 258.905 276.756 258.654 276.35 258.419L276.142 258.299C275.736 258.065 275.295 257.891 274.82 257.777C274.345 257.663 273.864 257.606 273.377 257.606C272.89 257.606 272.409 257.67 271.933 257.797C271.458 257.911 271.023 258.081 270.629 258.309C270.235 258.536 269.939 258.787 269.742 259.062C269.545 259.336 269.441 259.618 269.429 259.905C269.429 260.186 269.522 260.461 269.707 260.729C269.893 260.996 270.171 261.237 270.542 261.452L270.872 261.642C271.255 261.863 271.678 262.034 272.142 262.154C272.594 262.268 273.064 262.325 273.551 262.325C274.037 262.325 274.519 262.268 274.994 262.154C275.469 262.027 275.916 261.843 276.333 261.602ZM290.807 252.884L292.164 253.667L283.921 258.426L281.834 257.221C281.277 256.9 280.889 256.569 280.669 256.227C280.437 255.879 280.344 255.525 280.39 255.163C280.437 254.788 280.605 254.403 280.895 254.008C281.185 253.614 281.567 253.199 282.042 252.763C282.842 252.034 283.254 251.415 283.277 250.906C283.312 250.391 283.016 249.952 282.39 249.591L282.286 249.53C281.973 249.35 281.614 249.202 281.208 249.089C280.802 248.975 280.367 248.911 279.903 248.898C279.44 248.884 278.964 248.938 278.477 249.059C277.99 249.166 277.509 249.356 277.034 249.631C276.141 250.146 275.718 250.705 275.764 251.308C275.822 251.903 276.304 252.462 277.208 252.984L277.973 253.426L276.512 254.27L275.643 253.768C275.086 253.446 274.646 253.085 274.321 252.683C273.996 252.282 273.817 251.863 273.782 251.428C273.747 250.993 273.88 250.555 274.182 250.113C274.483 249.671 274.982 249.249 275.678 248.848C276.385 248.439 277.109 248.148 277.851 247.974C278.582 247.793 279.301 247.706 280.008 247.713C280.703 247.713 281.358 247.797 281.973 247.964C282.587 248.118 283.127 248.329 283.59 248.597L283.903 248.777C284.831 249.313 285.335 249.939 285.416 250.655C285.486 251.364 285.022 252.168 284.025 253.065C283.155 253.848 282.663 254.507 282.547 255.043C282.419 255.571 282.738 256.057 283.503 256.499L284.025 256.8L290.807 252.884ZM286.291 243.001L289.126 241.364L297.647 246.284L299.525 245.2L300.882 245.983L299.004 247.067L301.299 248.393L299.838 249.236L297.543 247.911L291.908 251.164L289.891 249.999L286.291 243.001ZM291.595 249.537L291.804 249.658L296.186 247.128L288.291 242.569L288.082 242.69L291.595 249.537ZM317.97 237.202L307.797 231.328L307.588 231.448L310.162 235.244L308.718 236.077L308.614 236.017L305.779 231.75L308.614 230.113L319.431 236.358L322.874 234.37L324.231 235.153L315.883 239.973L314.527 239.19L317.97 237.202ZM318.897 229.638C317.32 228.728 316.474 227.804 316.358 226.867C316.242 225.93 316.857 225.073 318.201 224.296C319.546 223.52 321.03 223.165 322.653 223.232C324.277 223.299 325.877 223.788 327.453 224.698L330.166 226.264C331.789 227.202 332.647 228.132 332.74 229.056C332.833 229.979 332.207 230.829 330.862 231.606C329.517 232.382 328.045 232.744 326.445 232.69C324.845 232.637 323.233 232.141 321.61 231.204L318.897 229.638ZM329.54 230.843C330.479 230.301 330.856 229.708 330.671 229.066C330.485 228.41 329.795 227.737 328.601 227.048L326.097 225.602C325.54 225.28 324.978 225.023 324.41 224.829C323.83 224.628 323.256 224.504 322.688 224.457C322.12 224.397 321.564 224.417 321.019 224.517C320.485 224.611 319.987 224.792 319.523 225.06C319.048 225.334 318.729 225.625 318.567 225.933C318.404 226.241 318.37 226.562 318.462 226.897C318.555 227.218 318.775 227.546 319.123 227.881C319.459 228.209 319.906 228.534 320.462 228.855L322.967 230.301C324.161 230.99 325.32 231.392 326.445 231.506C327.569 231.606 328.601 231.385 329.54 230.843ZM323.419 228.594C323.117 228.42 322.967 228.206 322.967 227.951C322.967 227.697 323.117 227.483 323.419 227.309C323.72 227.135 324.091 227.048 324.532 227.048C324.972 227.048 325.343 227.135 325.645 227.309C325.946 227.483 326.097 227.697 326.097 227.951C326.097 228.206 325.946 228.42 325.645 228.594C325.343 228.768 324.972 228.855 324.532 228.855C324.091 228.855 323.72 228.768 323.419 228.594ZM335.197 218.861C334.444 218.426 333.609 218.212 332.693 218.219C331.766 218.219 330.89 218.457 330.067 218.932C329.673 219.159 329.377 219.41 329.18 219.685C328.995 219.953 328.914 220.234 328.937 220.528C328.96 220.809 329.082 221.094 329.302 221.382C329.534 221.663 329.864 221.927 330.293 222.175L332.102 223.219L332.311 223.099C332.079 222.643 332.073 222.185 332.293 221.723C332.525 221.254 332.96 220.836 333.597 220.468C334.154 220.147 334.763 219.902 335.424 219.735C336.073 219.561 336.739 219.477 337.423 219.484C338.119 219.484 338.809 219.574 339.493 219.755C340.177 219.922 340.832 220.187 341.458 220.548L341.667 220.669C342.27 221.017 342.71 221.398 342.988 221.813C343.278 222.222 343.412 222.64 343.388 223.068C343.377 223.49 343.209 223.909 342.884 224.324C342.571 224.732 342.113 225.11 341.51 225.458C340.907 225.806 340.247 226.074 339.528 226.261C338.82 226.442 338.102 226.542 337.371 226.563C336.641 226.569 335.922 226.496 335.215 226.342C334.508 226.174 333.858 225.92 333.267 225.579L328.832 223.018C328.195 222.65 327.725 222.252 327.424 221.823C327.122 221.395 326.983 220.967 327.006 220.538C327.018 220.103 327.175 219.685 327.476 219.283C327.789 218.875 328.235 218.503 328.815 218.169C329.395 217.834 330.021 217.573 330.693 217.386C331.366 217.198 332.05 217.098 332.745 217.084C333.429 217.064 334.108 217.135 334.78 217.295C335.452 217.442 336.079 217.683 336.658 218.018L335.197 218.861ZM340.223 224.715C340.641 224.474 340.954 224.22 341.162 223.952C341.371 223.671 341.475 223.39 341.475 223.109C341.475 222.827 341.371 222.553 341.162 222.285C340.954 222.018 340.647 221.767 340.241 221.532L340.032 221.412C339.626 221.178 339.186 221.003 338.71 220.89C338.235 220.776 337.754 220.719 337.267 220.719C336.78 220.719 336.299 220.783 335.823 220.91C335.348 221.024 334.913 221.194 334.519 221.422C334.125 221.649 333.829 221.9 333.632 222.175C333.435 222.449 333.331 222.73 333.319 223.018C333.319 223.299 333.412 223.574 333.597 223.842C333.783 224.109 334.061 224.35 334.432 224.565L334.763 224.755C335.145 224.976 335.568 225.147 336.032 225.267C336.484 225.381 336.954 225.438 337.441 225.438C337.928 225.438 338.409 225.381 338.884 225.267C339.36 225.14 339.806 224.956 340.223 224.715ZM335.672 214.491L343.811 209.792L345.933 211.017L348.559 218.457C348.686 218.812 348.82 219.103 348.959 219.33C349.098 219.558 349.307 219.752 349.585 219.913L350.107 220.214L348.68 221.037L348.054 220.676C347.846 220.555 347.666 220.431 347.515 220.304C347.376 220.17 347.254 220.026 347.15 219.873C347.046 219.705 346.953 219.524 346.872 219.33C346.791 219.123 346.704 218.885 346.611 218.617L344.124 211.418L343.915 211.298L337.029 215.274L335.672 214.491ZM373.299 207.105C372.684 207.46 372.047 207.734 371.386 207.928C370.713 208.116 370.053 208.229 369.403 208.27C368.743 208.303 368.116 208.263 367.525 208.149C366.934 208.022 366.401 207.821 365.925 207.547L365.717 207.426C365.299 207.185 364.992 206.934 364.795 206.673C364.598 206.412 364.482 206.151 364.447 205.89C364.412 205.629 364.447 205.375 364.551 205.127C364.667 204.873 364.83 204.638 365.038 204.424L364.83 204.304C364.482 204.411 364.111 204.484 363.717 204.525C363.322 204.565 362.922 204.575 362.517 204.555C362.122 204.528 361.734 204.464 361.351 204.364C360.957 204.257 360.592 204.106 360.256 203.912L360.047 203.792C359.583 203.524 359.253 203.226 359.056 202.898C358.847 202.563 358.772 202.219 358.83 201.864C358.899 201.502 359.091 201.144 359.404 200.789C359.717 200.421 360.163 200.07 360.743 199.735L360.847 199.675C361.415 199.347 362.018 199.093 362.656 198.912C363.282 198.724 363.902 198.614 364.517 198.581C365.143 198.54 365.746 198.581 366.325 198.701C366.893 198.815 367.409 199.006 367.873 199.273L368.082 199.394C368.418 199.588 368.679 199.799 368.864 200.026C369.038 200.247 369.142 200.475 369.177 200.709C369.224 200.937 369.206 201.168 369.125 201.402C369.056 201.63 368.934 201.84 368.76 202.034L368.969 202.155C369.34 202.034 369.74 201.944 370.169 201.884C370.609 201.817 371.055 201.794 371.508 201.814C371.96 201.834 372.412 201.901 372.864 202.014C373.316 202.128 373.751 202.306 374.168 202.547L374.377 202.667C374.852 202.941 375.194 203.253 375.403 203.601C375.612 203.935 375.687 204.294 375.629 204.675C375.56 205.05 375.363 205.432 375.038 205.82C374.702 206.201 374.226 206.569 373.612 206.924L373.299 207.105ZM372.238 206.191C373.026 205.736 373.461 205.251 373.542 204.735C373.635 204.213 373.357 203.765 372.708 203.39L372.603 203.33C371.884 202.915 371.073 202.741 370.169 202.808C369.276 202.868 368.429 203.129 367.63 203.591L367.525 203.651C366.725 204.113 366.267 204.605 366.151 205.127C366.047 205.642 366.354 206.108 367.073 206.523L367.177 206.583C367.827 206.958 368.598 207.122 369.49 207.075C370.395 207.021 371.241 206.767 372.029 206.312L372.238 206.191ZM366.221 202.838C366.951 202.416 367.351 201.964 367.421 201.482C367.49 201 367.235 200.592 366.656 200.257L366.551 200.197C365.96 199.856 365.259 199.712 364.447 199.765C363.635 199.805 362.859 200.04 362.117 200.468C361.375 200.897 360.963 201.348 360.882 201.824C360.801 202.285 361.056 202.687 361.647 203.028L361.751 203.089C362.331 203.423 363.038 203.571 363.873 203.531C364.708 203.49 365.49 203.259 366.221 202.838ZM374.156 199.702L367.722 195.987L375.339 191.589L376.695 192.372L370.504 195.947L374.852 198.457L375.061 198.337C374.945 198.136 374.875 197.922 374.852 197.694C374.817 197.46 374.84 197.225 374.921 196.991C375.014 196.75 375.171 196.512 375.391 196.278C375.6 196.037 375.895 195.806 376.278 195.585C376.834 195.264 377.437 195.023 378.087 194.863C378.747 194.695 379.414 194.611 380.087 194.611C380.759 194.611 381.426 194.695 382.086 194.863C382.759 195.023 383.385 195.271 383.965 195.606L384.278 195.786C384.857 196.121 385.315 196.492 385.652 196.901C385.976 197.302 386.162 197.724 386.208 198.166C386.243 198.601 386.109 199.039 385.808 199.481C385.507 199.923 385.008 200.345 384.312 200.746C383.605 201.155 382.875 201.456 382.121 201.65C381.368 201.844 380.62 201.941 379.878 201.941C379.136 201.941 378.417 201.854 377.721 201.68C377.026 201.493 376.382 201.228 375.791 200.887L375.304 200.606L376.765 199.762L377.147 199.983C378.11 200.539 379.101 200.803 380.121 200.776C381.142 200.736 382.086 200.465 382.956 199.963C383.42 199.695 383.744 199.414 383.93 199.12C384.115 198.812 384.185 198.511 384.139 198.216C384.092 197.908 383.941 197.614 383.686 197.332C383.42 197.045 383.084 196.784 382.678 196.549L382.573 196.489C382.214 196.282 381.814 196.124 381.373 196.017C380.944 195.903 380.504 195.843 380.052 195.836C379.611 195.823 379.171 195.87 378.73 195.977C378.289 196.071 377.889 196.221 377.53 196.429C377.287 196.569 377.095 196.72 376.956 196.881C376.829 197.035 376.748 197.189 376.713 197.343C376.666 197.49 376.661 197.634 376.695 197.774C376.742 197.908 376.811 198.022 376.904 198.116L374.156 199.702ZM387.257 191.777L385.239 190.612L386.665 186.857L386.457 186.737L379.57 190.713L378.214 189.93L386.352 185.231L388.578 186.516L387.152 190.271L387.361 190.391L388.057 189.99C388.52 189.722 389.042 189.508 389.622 189.347C390.202 189.187 390.799 189.096 391.413 189.076C392.039 189.049 392.665 189.103 393.291 189.237C393.917 189.357 394.509 189.578 395.065 189.899L395.378 190.08C395.9 190.381 396.283 190.723 396.526 191.104C396.769 191.486 396.874 191.881 396.839 192.289C396.793 192.691 396.613 193.096 396.3 193.504C395.987 193.899 395.535 194.267 394.943 194.608C394.259 195.003 393.541 195.298 392.787 195.492C392.033 195.686 391.286 195.79 390.544 195.803C389.79 195.81 389.065 195.733 388.37 195.572C387.674 195.398 387.048 195.151 386.492 194.829L385.552 194.287L387.013 193.444L387.848 193.926C388.289 194.18 388.752 194.367 389.239 194.488C389.726 194.595 390.219 194.645 390.717 194.639C391.216 194.618 391.709 194.542 392.196 194.408C392.683 194.274 393.135 194.086 393.552 193.845C393.935 193.624 394.225 193.383 394.422 193.122C394.63 192.855 394.746 192.587 394.77 192.319C394.781 192.045 394.706 191.78 394.543 191.526C394.37 191.265 394.109 191.034 393.761 190.833L393.657 190.773C392.926 190.351 392.126 190.157 391.257 190.191C390.375 190.217 389.587 190.432 388.891 190.833L387.257 191.777ZM403.157 188.019L392.984 182.145L392.775 182.266L395.349 186.061L393.905 186.894L393.801 186.834L390.966 182.567L393.801 180.93L404.618 187.175L408.061 185.187L409.418 185.971L401.07 190.79L399.714 190.007L403.157 188.019Z" fill="white"/>
<path d="M238.17 314.124C236.918 314.847 235.579 315.225 234.153 315.258C232.738 315.285 231.417 314.944 230.188 314.234L229.04 313.572L231.336 312.246L232.483 312.909C233.028 313.224 233.608 313.384 234.222 313.391C234.825 313.391 235.399 313.234 235.944 312.919C236.454 312.624 236.698 312.31 236.675 311.975C236.663 311.634 236.379 311.302 235.822 310.981L229.388 307.266L227.301 308.471L225.214 307.266L230.988 303.933L233.075 305.138L231.683 305.941L238.118 309.656C239.382 310.385 240.008 311.142 239.996 311.925C239.973 312.701 239.364 313.434 238.17 314.124ZM248.627 308.087C247.769 308.582 246.83 308.917 245.809 309.091C244.789 309.252 243.763 309.248 242.731 309.081C241.699 308.9 240.731 308.549 239.827 308.027L239.618 307.906C238.714 307.384 238.111 306.828 237.81 306.239C237.497 305.644 237.485 305.055 237.775 304.472C238.053 303.883 238.621 303.341 239.479 302.846C240.325 302.357 241.253 302.042 242.262 301.902C243.259 301.755 244.267 301.775 245.288 301.962C246.296 302.143 247.241 302.488 248.122 302.996L248.87 303.428L242.592 307.053C243.206 307.381 243.908 307.531 244.696 307.504C245.485 307.478 246.18 307.29 246.783 306.942C247.398 306.587 247.716 306.249 247.74 305.928C247.763 305.607 247.687 305.309 247.514 305.034L250.244 304.543C250.383 304.81 250.476 305.138 250.522 305.526C250.569 305.901 250.464 306.31 250.209 306.751C249.942 307.187 249.415 307.632 248.627 308.087ZM240.975 306.099L245.009 303.769C244.464 303.508 243.862 303.395 243.201 303.428C242.551 303.455 241.943 303.632 241.375 303.96C240.783 304.302 240.465 304.66 240.418 305.034C240.372 305.409 240.557 305.764 240.975 306.099ZM254.49 304.421L245.864 299.44L248.02 298.195L249.151 298.848L249.464 298.667C249.302 298.413 249.278 298.098 249.394 297.724C249.499 297.342 249.939 296.927 250.716 296.479C251.388 296.09 252.13 295.843 252.942 295.736C253.754 295.615 254.571 295.632 255.394 295.786C256.206 295.933 256.971 296.214 257.69 296.629L262.837 299.601L260.646 300.866L255.672 297.995C255.023 297.62 254.374 297.432 253.725 297.432C253.087 297.426 252.472 297.593 251.881 297.934C251.209 298.323 250.913 298.754 250.994 299.23C251.064 299.698 251.499 300.163 252.299 300.625L256.681 303.155L254.49 304.421ZM265.206 298.233L256.58 293.253L258.737 292.008L259.867 292.661L260.18 292.48C260.018 292.226 259.995 291.911 260.111 291.536C260.215 291.155 260.656 290.74 261.432 290.291C262.105 289.903 262.847 289.656 263.658 289.548C264.47 289.428 265.287 289.445 266.11 289.599C266.922 289.746 267.687 290.027 268.406 290.442L273.554 293.414L271.362 294.679L266.389 291.808C265.739 291.433 265.09 291.245 264.441 291.245C263.803 291.239 263.189 291.406 262.598 291.747C261.925 292.136 261.629 292.567 261.711 293.043C261.78 293.511 262.215 293.976 263.015 294.438L267.397 296.968L265.206 298.233ZM280.204 293.591L278.291 292.486L282.986 289.775C283.311 289.588 283.299 289.394 282.952 289.193L280.778 287.938L280.465 288.119C280.569 288.286 280.621 288.483 280.621 288.711C280.621 288.939 280.517 289.186 280.308 289.454C280.099 289.722 279.734 290.006 279.213 290.308C278.54 290.696 277.798 290.95 276.987 291.071C276.175 291.178 275.358 291.154 274.534 291C273.711 290.846 272.946 290.565 272.239 290.157L267.091 287.185L269.282 285.92L274.256 288.791C274.905 289.166 275.549 289.357 276.187 289.364C276.836 289.364 277.456 289.193 278.047 288.852C278.72 288.463 279.021 288.035 278.952 287.566C278.871 287.091 278.43 286.623 277.63 286.161L273.248 283.631L275.439 282.365L285.595 288.229C286.186 288.571 286.482 288.942 286.482 289.344C286.493 289.752 286.209 290.123 285.63 290.458L280.204 293.591ZM291.721 282.925L277.947 276.821L280.226 275.505L291.982 280.927L292.295 280.746L283.252 273.758L287.217 271.469L299.321 276.69L299.634 276.509L290.243 269.722L292.521 268.407L303.094 276.359L299.129 278.648L286.747 273.306L286.434 273.487L295.686 280.636L291.721 282.925ZM306.441 274.427L297.815 269.446L300.006 268.181L308.632 273.161L306.441 274.427ZM297.902 268.232C297.508 268.459 297.044 268.58 296.511 268.593C295.989 268.6 295.52 268.483 295.102 268.242C294.685 268.001 294.482 267.729 294.494 267.428C294.517 267.12 294.725 266.853 295.12 266.625C295.525 266.391 295.989 266.27 296.511 266.264C297.033 266.257 297.502 266.374 297.92 266.615C298.337 266.856 298.54 267.127 298.528 267.428C298.517 267.729 298.308 267.997 297.902 268.232ZM311.06 271.76L298.887 264.731L301.078 263.466L313.252 270.494L311.06 271.76ZM319.506 267.165C318.381 267.814 317.216 268.206 316.01 268.339C314.804 268.473 313.674 268.323 312.619 267.888L314.115 266.422C314.602 266.609 315.054 266.716 315.471 266.743C315.9 266.763 316.306 266.723 316.688 266.623C317.071 266.509 317.43 266.355 317.767 266.161C318.277 265.866 318.567 265.598 318.636 265.357C318.694 265.11 318.59 264.909 318.323 264.755C318.056 264.601 317.738 264.551 317.367 264.604C316.984 264.651 316.491 264.795 315.888 265.036L315.315 265.267C314.596 265.548 313.889 265.776 313.193 265.95C312.486 266.117 311.802 266.184 311.141 266.151C310.48 266.117 309.865 265.936 309.297 265.608C308.439 265.113 308.097 264.554 308.271 263.932C308.434 263.302 309.025 262.693 310.045 262.104C311.007 261.549 312.022 261.211 313.089 261.09C314.155 260.97 315.135 261.053 316.028 261.341L314.619 262.877C314.086 262.677 313.581 262.606 313.106 262.667C312.642 262.72 312.202 262.867 311.784 263.108C311.367 263.349 311.123 263.577 311.054 263.791C310.973 263.999 311.06 264.176 311.315 264.323C311.593 264.484 311.918 264.537 312.289 264.484C312.648 264.424 313.06 264.3 313.523 264.112L314.097 263.881C314.862 263.574 315.604 263.326 316.323 263.138C317.042 262.938 317.732 262.854 318.393 262.887C319.054 262.908 319.685 263.092 320.288 263.44C321.193 263.962 321.564 264.558 321.401 265.227C321.239 265.883 320.607 266.529 319.506 267.165ZM329.147 261.598C328.289 262.093 327.345 262.438 326.313 262.632C325.281 262.826 324.237 262.846 323.182 262.693C322.127 262.539 321.136 262.194 320.209 261.658L319.93 261.498C319.003 260.962 318.406 260.39 318.139 259.781C317.872 259.172 317.907 258.569 318.243 257.974C318.58 257.378 319.177 256.832 320.035 256.337C320.893 255.842 321.837 255.497 322.869 255.303C323.901 255.109 324.945 255.089 326 255.242C327.055 255.396 328.046 255.741 328.973 256.277L329.252 256.437C330.179 256.973 330.776 257.545 331.043 258.154C331.31 258.763 331.275 259.366 330.939 259.962C330.602 260.557 330.005 261.103 329.147 261.598ZM327.2 260.474C327.872 260.085 328.214 259.64 328.226 259.138C328.226 258.629 327.82 258.141 327.008 257.672L326.834 257.572C326.023 257.103 325.182 256.872 324.313 256.879C323.443 256.872 322.666 257.067 321.982 257.461C321.31 257.85 320.974 258.298 320.974 258.807C320.962 259.309 321.362 259.794 322.174 260.263L322.348 260.363C323.159 260.832 324.006 261.066 324.887 261.066C325.756 261.059 326.527 260.862 327.2 260.474ZM335.448 257.679L326.822 252.699L328.979 251.454L330.109 252.107L330.422 251.926C330.26 251.672 330.237 251.357 330.353 250.982C330.457 250.601 330.898 250.186 331.674 249.737C332.347 249.349 333.089 249.101 333.9 248.994C334.712 248.874 335.529 248.89 336.352 249.044C337.164 249.192 337.929 249.473 338.648 249.888L343.796 252.86L341.604 254.125L336.631 251.253C335.981 250.879 335.332 250.691 334.683 250.691C334.045 250.684 333.431 250.852 332.839 251.193C332.167 251.581 331.871 252.013 331.953 252.488C332.022 252.957 332.457 253.422 333.257 253.884L337.639 256.414L335.448 257.679Z" fill="white"/>
<g clip-path="url(#clip0_288_62)">
<path d="M112.362 200.66L97.9844 208.961L123.335 223.597L137.713 215.297L112.362 200.66Z" fill="#FF5F00"/>
<path d="M111.573 215.751C109.129 214.342 107.283 212.625 106.174 210.73C105.065 208.834 104.723 206.809 105.173 204.809C100.88 205.129 96.8059 206.139 93.4176 207.722C90.0292 209.306 87.4629 211.399 86.012 213.764C84.5611 216.128 84.2841 218.668 85.2127 221.093C86.1413 223.518 88.238 225.73 91.2632 227.476C94.2884 229.223 98.12 230.433 102.32 230.97C106.52 231.506 110.919 231.346 115.014 230.508C119.11 229.67 122.736 228.189 125.479 226.232C128.221 224.276 129.97 221.924 130.524 219.445C127.059 219.705 123.553 219.508 120.269 218.867C116.986 218.227 114.012 217.161 111.573 215.751Z" fill="#EB001B"/>
<path d="M144.434 196.78C147.459 198.527 149.556 200.739 150.485 203.163C151.413 205.588 151.136 208.128 149.685 210.492C148.235 212.857 145.668 214.95 142.28 216.534C138.892 218.117 134.818 219.127 130.525 219.447C130.971 217.447 130.628 215.423 129.519 213.527C128.41 211.632 126.566 209.915 124.125 208.505C121.684 207.096 118.71 206.031 115.427 205.391C112.144 204.751 108.638 204.552 105.174 204.81C105.728 202.332 107.476 199.98 110.219 198.023C112.962 196.067 116.588 194.586 120.683 193.748C124.778 192.91 129.177 192.75 133.377 193.287C137.577 193.823 141.409 195.033 144.434 196.78Z" fill="#F79E1B"/>
<path d="M152.856 203.452L152.337 203.152L152.55 203.029L152.445 202.968L151.901 203.282L152.007 203.343L152.221 203.22L152.74 203.519L152.856 203.452ZM153.911 202.843L153.285 202.482L153.118 202.578L153.357 202.937L152.735 202.799L152.569 202.895L153.194 203.257L153.312 203.189L152.84 202.916L153.427 203.048L153.549 202.977L153.32 202.638L153.793 202.911L153.911 202.843Z" fill="#F79E1B"/>
</g>
<defs>
<filter id="filter0_d_288_62" x="0.633127" y="0.254221" width="656.436" height="421.428" filterUnits="userSpaceOnUse" color-interpolation-filters="sRGB">
<feFlood flood-opacity="0" result="BackgroundImageFix"/>
<feColorMatrix in="SourceAlpha" type="matrix" values="0 0 0 0 0 0 0 0 0 0 0 0 0 0 0 0 0 0 127 0" result="hardAlpha"/>
<feOffset dx="25.1012" dy="25.1012"/>
<feGaussianBlur stdDeviation="25.1012"/>
<feComposite in2="hardAlpha" operator="out"/>
<feColorMatrix type="matrix" values="0 0 0 0 0 0 0 0 0 0 0 0 0 0 0 0 0 0 0.25 0"/>
<feBlend mode="normal" in2="BackgroundImageFix" result="effect1_dropShadow_288_62"/>
<feBlend mode="normal" in="SourceGraphic" in2="effect1_dropShadow_288_62" result="shape"/>
</filter>
<clipPath id="clip0_288_62">
<rect width="80.324" height="55.8503" fill="white" transform="matrix(0.866025 -0.5 0.866025 0.5 61.0762 216.98)"/>
</clipPath>
</defs>
</svg>
