<svg width="125" height="36" viewBox="0 0 125 36" fill="none" xmlns="http://www.w3.org/2000/svg">
<path d="M0.574951 15.2568H21.24V20.9295H6.20269V34.6612H0.574951V15.2568ZM0.574951 0.894775H23.0859V6.52251H0.574951V0.894775Z" fill="white"/>
<path d="M23.0859 0.894775H0.574951V6.52251H23.0859V0.894775Z" fill="white"/>
<path d="M0.574951 15.2568H21.24V20.9295H6.20269V34.6612H0.574951V15.2568ZM0.574951 0.894775H23.0859V6.52251H0.574951V0.894775Z" stroke="white"/>
<path d="M23.0859 0.894775H0.574951V6.52251H23.0859V0.894775Z" stroke="white"/>
<path d="M23.0859 0.894775H0.574951V6.52251H23.0859V0.894775Z" fill="#BBADFF"/>
<path d="M34.7419 0.894775H40.3246V34.6612H34.7419V0.894775Z" fill="white"/>
<path d="M75.4181 0.850098H81.0459V34.6615L58.4449 13.6813V34.6615H52.8171V0.850098L75.4181 21.8303V0.850098Z" fill="white"/>
<path d="M121.358 29.0334V34.6612H90.6978L112.578 6.52251H93.219V0.894775H124.464L101.953 29.0334H121.358Z" fill="white"/>
</svg>
